<svg xmlns="http://www.w3.org/2000/svg" xmlns:xlink="http://www.w3.org/1999/xlink" contentStyleType="text/css" data-diagram-type="CLASS" height="1483px" preserveAspectRatio="none" style="width:1804px;height:1483px;background:#FFFFFF;" version="1.1" viewBox="0 0 1804 1483" width="1804px" zoomAndPan="magnify"><defs/><g><!--cluster com--><g id="cluster_com"><path d="M8.5,6 L42.0049,6 A3.75,3.75 0 0 1 44.5049,8.5 L51.5049,28.2969 L1794.5,28.2969 A2.5,2.5 0 0 1 1797,30.7969 L1797,1473.5 A2.5,2.5 0 0 1 1794.5,1476 L8.5,1476 A2.5,2.5 0 0 1 6,1473.5 L6,8.5 A2.5,2.5 0 0 1 8.5,6 " fill="transparent" style="stroke:#000000;stroke-width:1.5;"/><line style="stroke:#000000;stroke-width:1.5;" x1="6" x2="51.5049" y1="28.2969" y2="28.2969"/><text fill="#000000" font-family="sans-serif" font-size="14" font-weight="bold" lengthAdjust="spacing" textLength="32.5049" x="10" y="20.9951">com</text></g><!--cluster ensea_java_final--><g id="cluster_ensea_java_final"><path d="M32.5,49 L162.1592,49 A3.75,3.75 0 0 1 164.6592,51.5 L171.6592,71.2969 L1770.5,71.2969 A2.5,2.5 0 0 1 1773,73.7969 L1773,1449.5 A2.5,2.5 0 0 1 1770.5,1452 L32.5,1452 A2.5,2.5 0 0 1 30,1449.5 L30,51.5 A2.5,2.5 0 0 1 32.5,49 " fill="transparent" style="stroke:#000000;stroke-width:1.5;"/><line style="stroke:#000000;stroke-width:1.5;" x1="30" x2="171.6592" y1="71.2969" y2="71.2969"/><text fill="#000000" font-family="sans-serif" font-size="14" font-weight="bold" lengthAdjust="spacing" textLength="128.6592" x="34" y="63.9951">ensea_java_final</text></g><!--class Body--><g id="elem_Body"><rect codeLine="2" fill="#F1F1F1" height="341.3438" id="Body" rx="2.5" ry="2.5" style="stroke:#181818;stroke-width:0.5;" width="885.8174" x="240" y="807"/><ellipse cx="660.9878" cy="823" fill="#ADD1B2" rx="11" ry="11" style="stroke:#181818;stroke-width:1;"/><path d="M663.9565,828.6406 Q663.3784,828.9375 662.7378,829.0781 Q662.0972,829.2344 661.394,829.2344 Q658.894,829.2344 657.5659,827.5938 Q656.2534,825.9375 656.2534,822.8125 Q656.2534,819.6875 657.5659,818.0313 Q658.894,816.375 661.394,816.375 Q662.0972,816.375 662.7378,816.5313 Q663.394,816.6875 663.9565,816.9844 L663.9565,819.7031 Q663.3315,819.125 662.7378,818.8594 Q662.144,818.5781 661.519,818.5781 Q660.1753,818.5781 659.4878,819.6563 Q658.8003,820.7188 658.8003,822.8125 Q658.8003,824.9063 659.4878,825.9844 Q660.1753,827.0469 661.519,827.0469 Q662.144,827.0469 662.7378,826.7813 Q663.3315,826.5 663.9565,825.9219 L663.9565,828.6406 Z " fill="#000000"/><text fill="#000000" font-family="sans-serif" font-size="14" lengthAdjust="spacing" textLength="35.3418" x="681.4878" y="827.8467">Body</text><line style="stroke:#181818;stroke-width:0.5;" x1="241" x2="1124.8174" y1="839" y2="839"/><rect fill="transparent" height="6" style="stroke:#C82930;stroke-width:1;" width="6" x="248" y="849.6484"/><text fill="#000000" font-family="sans-serif" font-size="14" lengthAdjust="spacing" textLength="53.9561" x="260" y="855.9951">b : float</text><ellipse cx="251" cy="868.9453" fill="transparent" rx="3" ry="3" style="stroke:#038048;stroke-width:1;"/><text fill="#000000" font-family="sans-serif" font-size="14" lengthAdjust="spacing" textLength="104.9111" x="260" y="872.292">fixed : Boolean</text><rect fill="transparent" height="6" style="stroke:#C82930;stroke-width:1;" width="6" x="248" y="882.2422"/><text fill="#000000" font-family="sans-serif" font-size="14" lengthAdjust="spacing" textLength="53.9561" x="260" y="888.5889">g : float</text><rect fill="transparent" height="6" style="stroke:#C82930;stroke-width:1;" width="6" x="248" y="898.5391"/><text fill="#000000" font-family="sans-serif" font-size="14" lengthAdjust="spacing" textLength="142.0371" x="260" y="904.8857">isColliding : Boolean</text><ellipse cx="251" cy="917.8359" fill="transparent" rx="3" ry="3" style="stroke:#038048;stroke-width:1;"/><text fill="#000000" font-family="sans-serif" font-size="14" lengthAdjust="spacing" textLength="100.0303" x="260" y="921.1826">mass : Double</text><rect fill="transparent" height="6" style="stroke:#C82930;stroke-width:1;" width="6" x="248" y="931.1328"/><text fill="#000000" font-family="sans-serif" font-size="14" lengthAdjust="spacing" textLength="50.8252" x="260" y="937.4795">r : float</text><ellipse cx="251" cy="950.4297" fill="transparent" rx="3" ry="3" style="stroke:#038048;stroke-width:1;"/><text fill="#000000" font-family="sans-serif" font-size="14" lengthAdjust="spacing" textLength="90.3711" x="260" y="953.7764">size : Double</text><rect fill="transparent" height="6" style="stroke:#C82930;stroke-width:1;" width="6" x="248" y="963.7266"/><text fill="#000000" font-family="sans-serif" font-size="14" lengthAdjust="spacing" textLength="128.1123" x="260" y="970.0732">textureId : Integer</text><rect fill="transparent" height="6" style="stroke:#C82930;stroke-width:1;" width="6" x="248" y="980.0234"/><text fill="#000000" font-family="sans-serif" font-size="14" lengthAdjust="spacing" textLength="137.9014" x="260" y="986.3701">texturePath : String</text><line style="stroke:#181818;stroke-width:0.5;" x1="241" x2="1124.8174" y1="993.6719" y2="993.6719"/><ellipse cx="251" cy="1007.3203" fill="#84BE84" rx="3" ry="3" style="stroke:#038048;stroke-width:1;"/><text fill="#000000" font-family="sans-serif" font-size="14" lengthAdjust="spacing" textLength="93.29" x="260" y="1010.667">draw () : void</text><ellipse cx="251" cy="1023.6172" fill="#84BE84" rx="3" ry="3" style="stroke:#038048;stroke-width:1;"/><text fill="#000000" font-family="sans-serif" font-size="14" lengthAdjust="spacing" text-decoration="underline" textLength="678.9316" x="260" y="1026.9639">drawCircle ( paramfloat1 : float , paramfloat2 : float , paramfloat3 : float , paramint4 : int ) : void</text><ellipse cx="251" cy="1039.9141" fill="#84BE84" rx="3" ry="3" style="stroke:#038048;stroke-width:1;"/><text fill="#000000" font-family="sans-serif" font-size="14" lengthAdjust="spacing" text-decoration="underline" textLength="859.8174" x="260" y="1043.2607">drawTexturedCircle ( paramfloat1 : float , paramfloat2 : float , paramfloat3 : float , paramint4 : int , paramint5 : int ) : void</text><ellipse cx="251" cy="1056.2109" fill="#84BE84" rx="3" ry="3" style="stroke:#038048;stroke-width:1;"/><text fill="#000000" font-family="sans-serif" font-size="14" lengthAdjust="spacing" textLength="157.4111" x="260" y="1059.5576">isColliding () : Boolean</text><rect fill="#F24D5C" height="6" style="stroke:#C82930;stroke-width:1;" width="6" x="248" y="1069.5078"/><text fill="#000000" font-family="sans-serif" font-size="14" lengthAdjust="spacing" text-decoration="underline" textLength="291.7715" x="260" y="1075.8545">loadTexture ( paramString1 : String ) : int</text><ellipse cx="251" cy="1088.8047" fill="#84BE84" rx="3" ry="3" style="stroke:#038048;stroke-width:1;"/><text fill="#000000" font-family="sans-serif" font-size="14" lengthAdjust="spacing" textLength="459.6211" x="260" y="1092.1514">move ( paramVector2D1 : com.ensea_java_final.Vector2D ) : void</text><ellipse cx="251" cy="1105.1016" fill="#84BE84" rx="3" ry="3" style="stroke:#038048;stroke-width:1;"/><text fill="#000000" font-family="sans-serif" font-size="14" lengthAdjust="spacing" textLength="330.8047" x="260" y="1108.4482">setColliding ( paramBoolean1 : Boolean ) : void</text><ellipse cx="251" cy="1121.3984" fill="#84BE84" rx="3" ry="3" style="stroke:#038048;stroke-width:1;"/><text fill="#000000" font-family="sans-serif" font-size="14" lengthAdjust="spacing" textLength="544.7695" x="260" y="1124.7451">setColor ( paramfloat1 : float , paramfloat2 : float , paramfloat3 : float ) : void</text><ellipse cx="251" cy="1137.6953" fill="#84BE84" rx="3" ry="3" style="stroke:#038048;stroke-width:1;"/><text fill="#000000" font-family="sans-serif" font-size="14" lengthAdjust="spacing" textLength="294.6221" x="260" y="1141.042">setTexture ( paramString1 : String ) : void</text></g><!--class Body$Builder--><g id="elem_Body$Builder"><rect codeLine="24" fill="#F1F1F1" height="373.9375" id="Body$Builder" rx="2.5" ry="2.5" style="stroke:#181818;stroke-width:0.5;" width="765.6963" x="991" y="84"/><ellipse cx="1322.7173" cy="100" fill="#ADD1B2" rx="11" ry="11" style="stroke:#181818;stroke-width:1;"/><path d="M1325.686,105.6406 Q1325.1079,105.9375 1324.4673,106.0781 Q1323.8267,106.2344 1323.1235,106.2344 Q1320.6235,106.2344 1319.2954,104.5938 Q1317.9829,102.9375 1317.9829,99.8125 Q1317.9829,96.6875 1319.2954,95.0313 Q1320.6235,93.375 1323.1235,93.375 Q1323.8267,93.375 1324.4673,93.5313 Q1325.1235,93.6875 1325.686,93.9844 L1325.686,96.7031 Q1325.061,96.125 1324.4673,95.8594 Q1323.8735,95.5781 1323.2485,95.5781 Q1321.9048,95.5781 1321.2173,96.6563 Q1320.5298,97.7188 1320.5298,99.8125 Q1320.5298,101.9063 1321.2173,102.9844 Q1321.9048,104.0469 1323.2485,104.0469 Q1323.8735,104.0469 1324.4673,103.7813 Q1325.061,103.5 1325.686,102.9219 L1325.686,105.6406 Z " fill="#000000"/><text fill="#000000" font-family="sans-serif" font-size="14" lengthAdjust="spacing" textLength="93.7617" x="1343.2173" y="104.8467">Body$Builder</text><line style="stroke:#181818;stroke-width:0.5;" x1="992" x2="1755.6963" y1="116" y2="116"/><rect fill="transparent" height="6" style="stroke:#C82930;stroke-width:1;" width="6" x="999" y="126.6484"/><text fill="#000000" font-family="sans-serif" font-size="14" lengthAdjust="spacing" textLength="53.9561" x="1011" y="132.9951">b : float</text><rect fill="transparent" height="6" style="stroke:#C82930;stroke-width:1;" width="6" x="999" y="142.9453"/><text fill="#000000" font-family="sans-serif" font-size="14" lengthAdjust="spacing" textLength="104.9111" x="1011" y="149.292">fixed : Boolean</text><rect fill="transparent" height="6" style="stroke:#C82930;stroke-width:1;" width="6" x="999" y="159.2422"/><text fill="#000000" font-family="sans-serif" font-size="14" lengthAdjust="spacing" textLength="53.9561" x="1011" y="165.5889">g : float</text><rect fill="transparent" height="6" style="stroke:#C82930;stroke-width:1;" width="6" x="999" y="175.5391"/><text fill="#000000" font-family="sans-serif" font-size="14" lengthAdjust="spacing" textLength="142.0371" x="1011" y="181.8857">isColliding : Boolean</text><rect fill="transparent" height="6" style="stroke:#C82930;stroke-width:1;" width="6" x="999" y="191.8359"/><text fill="#000000" font-family="sans-serif" font-size="14" lengthAdjust="spacing" textLength="100.0303" x="1011" y="198.1826">mass : Double</text><rect fill="transparent" height="6" style="stroke:#C82930;stroke-width:1;" width="6" x="999" y="208.1328"/><text fill="#000000" font-family="sans-serif" font-size="14" lengthAdjust="spacing" textLength="50.8252" x="1011" y="214.4795">r : float</text><rect fill="transparent" height="6" style="stroke:#C82930;stroke-width:1;" width="6" x="999" y="224.4297"/><text fill="#000000" font-family="sans-serif" font-size="14" lengthAdjust="spacing" textLength="90.3711" x="1011" y="230.7764">size : Double</text><rect fill="transparent" height="6" style="stroke:#C82930;stroke-width:1;" width="6" x="999" y="240.7266"/><text fill="#000000" font-family="sans-serif" font-size="14" lengthAdjust="spacing" textLength="137.9014" x="1011" y="247.0732">texturePath : String</text><rect fill="transparent" height="6" style="stroke:#C82930;stroke-width:1;" width="6" x="999" y="257.0234"/><text fill="#000000" font-family="sans-serif" font-size="14" lengthAdjust="spacing" textLength="79.7959" x="1011" y="263.3701">vx : Double</text><rect fill="transparent" height="6" style="stroke:#C82930;stroke-width:1;" width="6" x="999" y="273.3203"/><text fill="#000000" font-family="sans-serif" font-size="14" lengthAdjust="spacing" textLength="79.7959" x="1011" y="279.667">vy : Double</text><rect fill="transparent" height="6" style="stroke:#C82930;stroke-width:1;" width="6" x="999" y="289.6172"/><text fill="#000000" font-family="sans-serif" font-size="14" lengthAdjust="spacing" textLength="71.5107" x="1011" y="295.9639">x : Double</text><rect fill="transparent" height="6" style="stroke:#C82930;stroke-width:1;" width="6" x="999" y="305.9141"/><text fill="#000000" font-family="sans-serif" font-size="14" lengthAdjust="spacing" textLength="71.5107" x="1011" y="312.2607">y : Double</text><line style="stroke:#181818;stroke-width:0.5;" x1="992" x2="1755.6963" y1="319.5625" y2="319.5625"/><ellipse cx="1002" cy="333.2109" fill="#84BE84" rx="3" ry="3" style="stroke:#038048;stroke-width:1;"/><text fill="#000000" font-family="sans-serif" font-size="14" lengthAdjust="spacing" textLength="253.0254" x="1011" y="336.5576">build () : com.ensea_java_final.Body</text><ellipse cx="1002" cy="349.5078" fill="#84BE84" rx="3" ry="3" style="stroke:#038048;stroke-width:1;"/><text fill="#000000" font-family="sans-serif" font-size="14" lengthAdjust="spacing" textLength="739.6963" x="1011" y="352.8545">color ( paramfloat1 : float , paramfloat2 : float , paramfloat3 : float ) : com.ensea_java_final.Body$Builder</text><ellipse cx="1002" cy="365.8047" fill="#84BE84" rx="3" ry="3" style="stroke:#038048;stroke-width:1;"/><text fill="#000000" font-family="sans-serif" font-size="14" lengthAdjust="spacing" textLength="501.8672" x="1011" y="369.1514">fixed ( paramBoolean1 : Boolean ) : com.ensea_java_final.Body$Builder</text><ellipse cx="1002" cy="382.1016" fill="#84BE84" rx="3" ry="3" style="stroke:#038048;stroke-width:1;"/><text fill="#000000" font-family="sans-serif" font-size="14" lengthAdjust="spacing" textLength="489.9043" x="1011" y="385.4482">mass ( paramDouble1 : Double ) : com.ensea_java_final.Body$Builder</text><ellipse cx="1002" cy="398.3984" fill="#84BE84" rx="3" ry="3" style="stroke:#038048;stroke-width:1;"/><text fill="#000000" font-family="sans-serif" font-size="14" lengthAdjust="spacing" textLength="689.083" x="1011" y="401.7451">position ( paramDouble1 : Double , paramDouble2 : Double ) : com.ensea_java_final.Body$Builder</text><ellipse cx="1002" cy="414.6953" fill="#84BE84" rx="3" ry="3" style="stroke:#038048;stroke-width:1;"/><text fill="#000000" font-family="sans-serif" font-size="14" lengthAdjust="spacing" textLength="480.2451" x="1011" y="418.042">size ( paramDouble1 : Double ) : com.ensea_java_final.Body$Builder</text><ellipse cx="1002" cy="430.9922" fill="#84BE84" rx="3" ry="3" style="stroke:#038048;stroke-width:1;"/><text fill="#000000" font-family="sans-serif" font-size="14" lengthAdjust="spacing" textLength="488.5645" x="1011" y="434.3389">texture ( paramString1 : String ) : com.ensea_java_final.Body$Builder</text><ellipse cx="1002" cy="447.2891" fill="#84BE84" rx="3" ry="3" style="stroke:#038048;stroke-width:1;"/><text fill="#000000" font-family="sans-serif" font-size="14" lengthAdjust="spacing" textLength="688.3447" x="1011" y="450.6357">velocity ( paramDouble1 : Double , paramDouble2 : Double ) : com.ensea_java_final.Body$Builder</text></g><!--class Main--><g id="elem_Main"><rect codeLine="48" fill="#F1F1F1" height="113.1875" id="Main" rx="2.5" ry="2.5" style="stroke:#181818;stroke-width:0.5;" width="371.1807" x="584.5" y="214.5"/><ellipse cx="749.1299" cy="230.5" fill="#ADD1B2" rx="11" ry="11" style="stroke:#181818;stroke-width:1;"/><path d="M752.0986,236.1406 Q751.5205,236.4375 750.8799,236.5781 Q750.2393,236.7344 749.5361,236.7344 Q747.0361,236.7344 745.708,235.0938 Q744.3955,233.4375 744.3955,230.3125 Q744.3955,227.1875 745.708,225.5313 Q747.0361,223.875 749.5361,223.875 Q750.2393,223.875 750.8799,224.0313 Q751.5361,224.1875 752.0986,224.4844 L752.0986,227.2031 Q751.4736,226.625 750.8799,226.3594 Q750.2861,226.0781 749.6611,226.0781 Q748.3174,226.0781 747.6299,227.1563 Q746.9424,228.2188 746.9424,230.3125 Q746.9424,232.4063 747.6299,233.4844 Q748.3174,234.5469 749.6611,234.5469 Q750.2861,234.5469 750.8799,234.2813 Q751.4736,234 752.0986,233.4219 L752.0986,236.1406 Z " fill="#000000"/><text fill="#000000" font-family="sans-serif" font-size="14" lengthAdjust="spacing" textLength="33.4209" x="769.6299" y="235.3467">Main</text><line style="stroke:#181818;stroke-width:0.5;" x1="585.5" x2="954.6807" y1="246.5" y2="246.5"/><rect fill="transparent" height="6" style="stroke:#C82930;stroke-width:1;" width="6" x="592.5" y="257.1484"/><text fill="#000000" font-family="sans-serif" font-size="14" lengthAdjust="spacing" textLength="96.9473" x="604.5" y="263.4951">window : long</text><line style="stroke:#181818;stroke-width:0.5;" x1="585.5" x2="954.6807" y1="270.7969" y2="270.7969"/><rect fill="#F24D5C" height="6" style="stroke:#C82930;stroke-width:1;" width="6" x="592.5" y="281.4453"/><text fill="#000000" font-family="sans-serif" font-size="14" lengthAdjust="spacing" textLength="88.5254" x="604.5" y="287.792">loop () : void</text><ellipse cx="595.5" cy="300.7422" fill="#84BE84" rx="3" ry="3" style="stroke:#038048;stroke-width:1;"/><text fill="#000000" font-family="sans-serif" font-size="14" lengthAdjust="spacing" text-decoration="underline" textLength="345.1807" x="604.5" y="304.0889">main ( paramString;1 : [Ljava.lang.String; ) : void</text><ellipse cx="595.5" cy="317.0391" fill="#84BE84" rx="3" ry="3" style="stroke:#038048;stroke-width:1;"/><text fill="#000000" font-family="sans-serif" font-size="14" lengthAdjust="spacing" textLength="82.1201" x="604.5" y="320.3857">run () : void</text></g><!--class PhysicsEngine--><g id="elem_PhysicsEngine"><rect codeLine="56" fill="#F1F1F1" height="194.6719" id="PhysicsEngine" rx="2.5" ry="2.5" style="stroke:#181818;stroke-width:0.5;" width="958.9824" x="682.5" y="535"/><ellipse cx="1107.8628" cy="551" fill="#ADD1B2" rx="11" ry="11" style="stroke:#181818;stroke-width:1;"/><path d="M1110.8315,556.6406 Q1110.2534,556.9375 1109.6128,557.0781 Q1108.9722,557.2344 1108.269,557.2344 Q1105.769,557.2344 1104.4409,555.5938 Q1103.1284,553.9375 1103.1284,550.8125 Q1103.1284,547.6875 1104.4409,546.0313 Q1105.769,544.375 1108.269,544.375 Q1108.9722,544.375 1109.6128,544.5313 Q1110.269,544.6875 1110.8315,544.9844 L1110.8315,547.7031 Q1110.2065,547.125 1109.6128,546.8594 Q1109.019,546.5781 1108.394,546.5781 Q1107.0503,546.5781 1106.3628,547.6563 Q1105.6753,548.7188 1105.6753,550.8125 Q1105.6753,552.9063 1106.3628,553.9844 Q1107.0503,555.0469 1108.394,555.0469 Q1109.019,555.0469 1109.6128,554.7813 Q1110.2065,554.5 1110.8315,553.9219 L1110.8315,556.6406 Z " fill="#000000"/><text fill="#000000" font-family="sans-serif" font-size="14" lengthAdjust="spacing" textLength="99.7568" x="1128.3628" y="555.8467">PhysicsEngine</text><line style="stroke:#181818;stroke-width:0.5;" x1="683.5" x2="1640.4824" y1="567" y2="567"/><rect fill="transparent" height="6" style="stroke:#C82930;stroke-width:1;" width="6" x="690.5" y="577.6484"/><text fill="#000000" font-family="sans-serif" font-size="14" lengthAdjust="spacing" textLength="222.8242" x="702.5" y="583.9951">gravityDict : java.util.Dictionary</text><rect fill="transparent" height="6" style="stroke:#C82930;stroke-width:1;" width="6" x="690.5" y="593.9453"/><text fill="#000000" font-family="sans-serif" font-size="14" lengthAdjust="spacing" textLength="138.9063" x="702.5" y="600.292">gravityType : String</text><rect fill="transparent" height="6" style="stroke:#C82930;stroke-width:1;" width="6" x="690.5" y="610.2422"/><text fill="#000000" font-family="sans-serif" font-size="14" lengthAdjust="spacing" textLength="182.1094" x="702.5" y="616.5889">simulationDeltaT : Double</text><line style="stroke:#181818;stroke-width:0.5;" x1="683.5" x2="1640.4824" y1="623.8906" y2="623.8906"/><ellipse cx="693.5" cy="637.5391" fill="#84BE84" rx="3" ry="3" style="stroke:#038048;stroke-width:1;"/><text fill="#000000" font-family="sans-serif" font-size="14" lengthAdjust="spacing" textLength="519.0527" x="702.5" y="640.8857">applyGravity ( paramBoolean1 : Boolean , paramDouble2 : Double ) : void</text><ellipse cx="693.5" cy="653.8359" fill="#84BE84" rx="3" ry="3" style="stroke:#038048;stroke-width:1;"/><text fill="#000000" font-family="sans-serif" font-size="14" lengthAdjust="spacing" textLength="932.9824" x="702.5" y="657.1826">bodyGravity ( paramBody1 : com.ensea_java_final.Body , paramBody2 : com.ensea_java_final.Body , paramDouble3 : Double ) : void</text><ellipse cx="693.5" cy="670.1328" fill="#84BE84" rx="3" ry="3" style="stroke:#038048;stroke-width:1;"/><text fill="#000000" font-family="sans-serif" font-size="14" lengthAdjust="spacing" textLength="666.2236" x="702.5" y="673.4795">directionalGravity ( paramBody1 : com.ensea_java_final.Body , paramDouble2 : Double ) : void</text><ellipse cx="693.5" cy="686.4297" fill="#84BE84" rx="3" ry="3" style="stroke:#038048;stroke-width:1;"/><text fill="#000000" font-family="sans-serif" font-size="14" lengthAdjust="spacing" textLength="144.5732" x="702.5" y="689.7764">moveBodies () : void</text><ellipse cx="693.5" cy="702.7266" fill="#84BE84" rx="3" ry="3" style="stroke:#038048;stroke-width:1;"/><text fill="#000000" font-family="sans-serif" font-size="14" lengthAdjust="spacing" textLength="175.5605" x="702.5" y="706.0732">resolveCollisions () : void</text><ellipse cx="693.5" cy="719.0234" fill="#84BE84" rx="3" ry="3" style="stroke:#038048;stroke-width:1;"/><text fill="#000000" font-family="sans-serif" font-size="14" lengthAdjust="spacing" textLength="107.9463" x="702.5" y="722.3701">update () : void</text></g><!--class Vector2D--><g id="elem_Vector2D"><rect codeLine="69" fill="#F1F1F1" height="210.9688" id="Vector2D" rx="2.5" ry="2.5" style="stroke:#181818;stroke-width:0.5;" width="694.6094" x="335.5" y="1225"/><ellipse cx="645.8618" cy="1241" fill="#ADD1B2" rx="11" ry="11" style="stroke:#181818;stroke-width:1;"/><path d="M648.8306,1246.6406 Q648.2524,1246.9375 647.6118,1247.0781 Q646.9712,1247.2344 646.2681,1247.2344 Q643.7681,1247.2344 642.4399,1245.5938 Q641.1274,1243.9375 641.1274,1240.8125 Q641.1274,1237.6875 642.4399,1236.0313 Q643.7681,1234.375 646.2681,1234.375 Q646.9712,1234.375 647.6118,1234.5313 Q648.2681,1234.6875 648.8306,1234.9844 L648.8306,1237.7031 Q648.2056,1237.125 647.6118,1236.8594 Q647.0181,1236.5781 646.3931,1236.5781 Q645.0493,1236.5781 644.3618,1237.6563 Q643.6743,1238.7188 643.6743,1240.8125 Q643.6743,1242.9063 644.3618,1243.9844 Q645.0493,1245.0469 646.3931,1245.0469 Q647.0181,1245.0469 647.6118,1244.7813 Q648.2056,1244.5 648.8306,1243.9219 L648.8306,1246.6406 Z " fill="#000000"/><text fill="#000000" font-family="sans-serif" font-size="14" lengthAdjust="spacing" textLength="65.3857" x="666.3618" y="1245.8467">Vector2D</text><line style="stroke:#181818;stroke-width:0.5;" x1="336.5" x2="1029.1094" y1="1257" y2="1257"/><ellipse cx="346.5" cy="1270.6484" fill="transparent" rx="3" ry="3" style="stroke:#038048;stroke-width:1;"/><text fill="#000000" font-family="sans-serif" font-size="14" lengthAdjust="spacing" textLength="71.5107" x="355.5" y="1273.9951">x : Double</text><ellipse cx="346.5" cy="1286.9453" fill="transparent" rx="3" ry="3" style="stroke:#038048;stroke-width:1;"/><text fill="#000000" font-family="sans-serif" font-size="14" lengthAdjust="spacing" textLength="71.5107" x="355.5" y="1290.292">y : Double</text><line style="stroke:#181818;stroke-width:0.5;" x1="336.5" x2="1029.1094" y1="1297.5938" y2="1297.5938"/><ellipse cx="346.5" cy="1311.2422" fill="#84BE84" rx="3" ry="3" style="stroke:#038048;stroke-width:1;"/><text fill="#000000" font-family="sans-serif" font-size="14" lengthAdjust="spacing" textLength="636.8975" x="355.5" y="1314.5889">add ( paramVector2D1 : com.ensea_java_final.Vector2D ) : com.ensea_java_final.Vector2D</text><ellipse cx="346.5" cy="1327.5391" fill="#84BE84" rx="3" ry="3" style="stroke:#038048;stroke-width:1;"/><text fill="#000000" font-family="sans-serif" font-size="14" lengthAdjust="spacing" textLength="499.8232" x="355.5" y="1330.8857">distance ( paramVector2D1 : com.ensea_java_final.Vector2D ) : Double</text><ellipse cx="346.5" cy="1343.8359" fill="#84BE84" rx="3" ry="3" style="stroke:#038048;stroke-width:1;"/><text fill="#000000" font-family="sans-serif" font-size="14" lengthAdjust="spacing" textLength="463.4424" x="355.5" y="1347.1826">dot ( paramVector2D1 : com.ensea_java_final.Vector2D ) : Double</text><ellipse cx="346.5" cy="1360.1328" fill="#84BE84" rx="3" ry="3" style="stroke:#038048;stroke-width:1;"/><text fill="#000000" font-family="sans-serif" font-size="14" lengthAdjust="spacing" textLength="154.3281" x="355.5" y="1363.4795">magnitude () : Double</text><ellipse cx="346.5" cy="1376.4297" fill="#84BE84" rx="3" ry="3" style="stroke:#038048;stroke-width:1;"/><text fill="#000000" font-family="sans-serif" font-size="14" lengthAdjust="spacing" textLength="317.7959" x="355.5" y="1379.7764">normalize () : com.ensea_java_final.Vector2D</text><ellipse cx="346.5" cy="1392.7266" fill="#84BE84" rx="3" ry="3" style="stroke:#038048;stroke-width:1;"/><text fill="#000000" font-family="sans-serif" font-size="14" lengthAdjust="spacing" textLength="460.7969" x="355.5" y="1396.0732">scale ( paramDouble1 : Double ) : com.ensea_java_final.Vector2D</text><ellipse cx="346.5" cy="1409.0234" fill="#84BE84" rx="3" ry="3" style="stroke:#038048;stroke-width:1;"/><text fill="#000000" font-family="sans-serif" font-size="14" lengthAdjust="spacing" textLength="646.6182" x="355.5" y="1412.3701">scale ( paramVector2D1 : com.ensea_java_final.Vector2D ) : com.ensea_java_final.Vector2D</text><ellipse cx="346.5" cy="1425.3203" fill="#84BE84" rx="3" ry="3" style="stroke:#038048;stroke-width:1;"/><text fill="#000000" font-family="sans-serif" font-size="14" lengthAdjust="spacing" textLength="668.6094" x="355.5" y="1428.667">subtract ( paramVector2D1 : com.ensea_java_final.Vector2D ) : com.ensea_java_final.Vector2D</text></g><!--class WindowManager--><g id="elem_WindowManager"><rect codeLine="83" fill="#F1F1F1" height="178.375" id="WindowManager" rx="2.5" ry="2.5" style="stroke:#181818;stroke-width:0.5;" width="502.8203" x="46.5" y="182"/><ellipse cx="235.2231" cy="198" fill="#ADD1B2" rx="11" ry="11" style="stroke:#181818;stroke-width:1;"/><path d="M238.1919,203.6406 Q237.6138,203.9375 236.9731,204.0781 Q236.3325,204.2344 235.6294,204.2344 Q233.1294,204.2344 231.8013,202.5938 Q230.4888,200.9375 230.4888,197.8125 Q230.4888,194.6875 231.8013,193.0313 Q233.1294,191.375 235.6294,191.375 Q236.3325,191.375 236.9731,191.5313 Q237.6294,191.6875 238.1919,191.9844 L238.1919,194.7031 Q237.5669,194.125 236.9731,193.8594 Q236.3794,193.5781 235.7544,193.5781 Q234.4106,193.5781 233.7231,194.6563 Q233.0356,195.7188 233.0356,197.8125 Q233.0356,199.9063 233.7231,200.9844 Q234.4106,202.0469 235.7544,202.0469 Q236.3794,202.0469 236.9731,201.7813 Q237.5669,201.5 238.1919,200.9219 L238.1919,203.6406 Z " fill="#000000"/><text fill="#000000" font-family="sans-serif" font-size="14" lengthAdjust="spacing" textLength="116.874" x="255.7231" y="202.8467">WindowManager</text><line style="stroke:#181818;stroke-width:0.5;" x1="47.5" x2="548.3203" y1="214" y2="214"/><ellipse cx="57.5" cy="227.6484" fill="transparent" rx="3" ry="3" style="stroke:#038048;stroke-width:1;"/><text fill="#000000" font-family="sans-serif" font-size="14" lengthAdjust="spacing" text-decoration="underline" textLength="165.0195" x="66.5" y="230.9951">BOTTOM_BOUND : float</text><ellipse cx="57.5" cy="243.9453" fill="transparent" rx="3" ry="3" style="stroke:#038048;stroke-width:1;"/><text fill="#000000" font-family="sans-serif" font-size="14" lengthAdjust="spacing" text-decoration="underline" textLength="137.4434" x="66.5" y="247.292">LEFT_BOUND : float</text><ellipse cx="57.5" cy="260.2422" fill="transparent" rx="3" ry="3" style="stroke:#038048;stroke-width:1;"/><text fill="#000000" font-family="sans-serif" font-size="14" lengthAdjust="spacing" text-decoration="underline" textLength="147.9775" x="66.5" y="263.5889">RIGHT_BOUND : float</text><ellipse cx="57.5" cy="276.5391" fill="transparent" rx="3" ry="3" style="stroke:#038048;stroke-width:1;"/><text fill="#000000" font-family="sans-serif" font-size="14" lengthAdjust="spacing" text-decoration="underline" textLength="132.207" x="66.5" y="279.8857">TOP_BOUND : float</text><rect fill="transparent" height="6" style="stroke:#C82930;stroke-width:1;" width="6" x="54.5" y="289.8359"/><text fill="#000000" font-family="sans-serif" font-size="14" lengthAdjust="spacing" text-decoration="underline" textLength="96.9473" x="66.5" y="296.1826">window : long</text><line style="stroke:#181818;stroke-width:0.5;" x1="47.5" x2="548.3203" y1="303.4844" y2="303.4844"/><ellipse cx="57.5" cy="317.1328" fill="#84BE84" rx="3" ry="3" style="stroke:#038048;stroke-width:1;"/><text fill="#000000" font-family="sans-serif" font-size="14" lengthAdjust="spacing" text-decoration="underline" textLength="114.0303" x="66.5" y="320.4795">cleanup () : void</text><ellipse cx="57.5" cy="333.4297" fill="#84BE84" rx="3" ry="3" style="stroke:#038048;stroke-width:1;"/><text fill="#000000" font-family="sans-serif" font-size="14" lengthAdjust="spacing" text-decoration="underline" textLength="476.8203" x="66.5" y="336.7764">init ( paramint1 : int , paramint2 : int , paramString3 : String ) : void</text><ellipse cx="57.5" cy="349.7266" fill="#84BE84" rx="3" ry="3" style="stroke:#038048;stroke-width:1;"/><text fill="#000000" font-family="sans-serif" font-size="14" lengthAdjust="spacing" text-decoration="underline" textLength="107.9463" x="66.5" y="353.0732">update () : void</text></g><!--link Body to Vector2D--><g id="link_Body_Vector2D"><path codeLine="97" d="M568.48,1148.09 C564.42,1157.98 560.88,1167.98 558,1178 C553.29,1194.39 552.8983,1204.6049 558.9983,1219.3649 " fill="transparent" id="Body-to-Vector2D" style="stroke:#181818;stroke-width:1;"/><polygon fill="#181818" points="561.29,1224.91,561.5492,1215.0646,559.3803,1220.2891,554.1557,1218.1201,561.29,1224.91" style="stroke:#181818;stroke-width:1;"/><text fill="#000000" font-family="sans-serif" font-size="13" lengthAdjust="spacing" textLength="80.082" x="559" y="1191.0669">acceleration</text></g><!--link Body to Vector2D--><g id="link_Body_Vector2D"><path codeLine="98" d="M679.84,1148.1 C679.79,1163.95 679.83,1179.78 680,1195 C680.11,1204.69 680.153,1208.781 680.333,1218.871 " fill="transparent" id="Body-to-Vector2D-1" style="stroke:#181818;stroke-width:1;"/><polygon fill="#181818" points="680.44,1224.87,684.2788,1215.8001,680.3508,1219.8708,676.2801,1215.9428,680.44,1224.87" style="stroke:#181818;stroke-width:1;"/><text fill="#000000" font-family="sans-serif" font-size="13" lengthAdjust="spacing" textLength="51.4922" x="681" y="1191.0669">position</text></g><!--link Body to Vector2D--><g id="link_Body_Vector2D"><path codeLine="99" d="M739.72,1148.01 C740.65,1163.84 739.96,1179.69 737,1195 C735.09,1204.88 734.231,1209.2273 731.151,1219.1973 " fill="transparent" id="Body-to-Vector2D-2" style="stroke:#181818;stroke-width:1;"/><polygon fill="#181818" points="729.38,1224.93,735.8583,1217.5116,730.8558,1220.1528,728.2147,1215.1503,729.38,1224.93" style="stroke:#181818;stroke-width:1;"/><text fill="#000000" font-family="sans-serif" font-size="13" lengthAdjust="spacing" textLength="50.8066" x="739" y="1191.0669">velocity</text></g><!--reverse link Main to Body--><g id="link_Main_Body"><path codeLine="100" d="M720.0151,337.5248 C683.7151,388.3448 641.46,457.36 621,535 C597.72,623.32 609.07,724.02 628.08,806.93 " fill="transparent" id="Main-backto-Body" style="stroke:#181818;stroke-width:1;"/><polygon fill="transparent" points="726.99,327.76,720.2476,330.3174,720.0151,337.5248,726.7575,334.9674,726.99,327.76" style="stroke:#181818;stroke-width:1;"/><text fill="#000000" font-family="sans-serif" font-size="13" lengthAdjust="spacing" textLength="42.8403" x="622" y="637.0669">bodies</text><text fill="#000000" font-family="sans-serif" font-size="13" lengthAdjust="spacing" textLength="8.271" x="713.2662" y="347.6552">1</text><text fill="#000000" font-family="sans-serif" font-size="13" lengthAdjust="spacing" textLength="23.0356" x="602.0753" y="795.9233">0..*</text></g><!--link Main to PhysicsEngine--><g id="link_Main_PhysicsEngine"><path codeLine="101" d="M830.82,327.78 C891.03,383 980.0181,464.6045 1052.2981,530.8945 " fill="transparent" id="Main-to-PhysicsEngine" style="stroke:#181818;stroke-width:1;"/><polygon fill="#181818" points="1056.72,534.95,1052.7908,525.9189,1053.0351,531.5705,1047.3835,531.8148,1056.72,534.95" style="stroke:#181818;stroke-width:1;"/><text fill="#000000" font-family="sans-serif" font-size="13" lengthAdjust="spacing" textLength="93.0439" x="1025" y="501.0669">physicsEngine</text></g><!--reverse link PhysicsEngine to Body--><g id="link_PhysicsEngine_Body"><path codeLine="102" d="M1017.2229,737.1756 C983.7429,761.1456 956.63,780.56 919.85,806.9 " fill="transparent" id="PhysicsEngine-backto-Body" style="stroke:#181818;stroke-width:1;"/><polygon fill="transparent" points="1026.98,730.19,1019.7729,730.4304,1017.2229,737.1756,1024.43,736.9352,1026.98,730.19" style="stroke:#181818;stroke-width:1;"/><text fill="#000000" font-family="sans-serif" font-size="13" lengthAdjust="spacing" textLength="42.8403" x="980" y="773.0669">bodies</text><text fill="#000000" font-family="sans-serif" font-size="13" lengthAdjust="spacing" textLength="8.271" x="1009.2153" y="749.6693">1</text><text fill="#000000" font-family="sans-serif" font-size="13" lengthAdjust="spacing" textLength="23.0356" x="907.0661" y="795.892">0..*</text></g><!--SRC=[jLVFRzem53wFly92EtIZGGlTBapQWT9rbTPHRMmxx50PswIU73kodRHPrVzzJaB0QPm4A9o0v-VlVNw_GGmg1P08XuGh0c__mWJUBYc7R3WHE0MFlLUFIqeOVWBU0ep1aWceDxB1aZuGREGJ8HY1tD8EwjeULUU2COef3rnt1c56PWoc8bumOjsJ3ikA_YCkNKqUT2p9LSRgYciI45a_lO7wpfp_qD9GCSSXqNSYGyKIteEJD-Oi4HHR9-1HQQWfMkcSKuaO0ISWWXA6EJU_90bEBUd8AJrxBgLSlpSoym6wZS-BH-0ZajX8FZJJ6jZnp9ss2McTkcTCuHNradCH07yTYjoAiMOR2KMorlz5a1PoDCrkE9EsL73ILKHRV0l45MD_Gxxbgf07S7O3_3QUoQyzzNezr5wshoSnPPZ8hlBr3bg-tWxbwtMKx_C2BO-J1zUb97L9dQeLpRN_5vc_YXHkTAgjZmwO2vrHj0qN0MlFtPq0yvYjy0g_-6iFxOuM2KKr5RmHyTIMZrvWAS-VW_7MMnJVJe09OG9HdHx94Hqzu1fINgdzUygnk3VGJ5JcdUd98kgQTs66Ll7Cn-mXVxvc5eSCyc2u4ZjxcuovPQ63-SrTgYXI5poWd5IU44YO68TEAT86ApSTQyg6cS1a79HfNNcUHiJLHHGDOmQpQrF2D9mxUmAC8fPU5a0j5TSMoEUkM9WOrX1nwhV5l3IGVHzjerZOFsjdWgaaXT_OleIsUd4slCqbIfGpomQIAC4IaiyLPUWqgCKHXffidqRhDS3Ae85h7WpSym1YlD_AqQfH3O2fBuxst6pgZB7GXu8AOS2fZl7AttK5BcG8MTw0TtgpGf3jqRGxeOuK8XKlj8H87yDCH_x-pllrDUGmg6vncwuycStdi-lRoUpdjsbzlzheVRtuFE_M-dvr-MKBjVdifbEfSTXOE2XhdN7dvA4c3qllcty5VktFoQWgAHhzcMDfTi8xkug9IsFdyxnFe2FqOm0H8ep8VBoy5AlSfrwAKwuZlUPreU_tWV0yq7yt7BxjWvR-FmQBlAEtW3MJgWvuyqBxTs-BAtlmxFq7]--></g></svg>