<svg xmlns="http://www.w3.org/2000/svg" xmlns:xlink="http://www.w3.org/1999/xlink" contentStyleType="text/css" data-diagram-type="CLASS" height="1645px" preserveAspectRatio="none" style="width:2311px;height:1645px;background:#FFFFFF;" version="1.1" viewBox="0 0 2311 1645" width="2311px" zoomAndPan="magnify"><defs/><g><!--cluster com--><g id="cluster_com"><path d="M8.5,6 L42.0049,6 A3.75,3.75 0 0 1 44.5049,8.5 L51.5049,28.2969 L2301.5,28.2969 A2.5,2.5 0 0 1 2304,30.7969 L2304,1635.5 A2.5,2.5 0 0 1 2301.5,1638 L8.5,1638 A2.5,2.5 0 0 1 6,1635.5 L6,8.5 A2.5,2.5 0 0 1 8.5,6 " fill="transparent" style="stroke:#000000;stroke-width:1.5;"/><line style="stroke:#000000;stroke-width:1.5;" x1="6" x2="51.5049" y1="28.2969" y2="28.2969"/><text fill="#000000" font-family="sans-serif" font-size="14" font-weight="bold" lengthAdjust="spacing" textLength="32.5049" x="10" y="20.9951">com</text></g><!--cluster ensea_java_final--><g id="cluster_ensea_java_final"><path d="M32.5,49 L162.1592,49 A3.75,3.75 0 0 1 164.6592,51.5 L171.6592,71.2969 L2277.5,71.2969 A2.5,2.5 0 0 1 2280,73.7969 L2280,1611.5 A2.5,2.5 0 0 1 2277.5,1614 L32.5,1614 A2.5,2.5 0 0 1 30,1611.5 L30,51.5 A2.5,2.5 0 0 1 32.5,49 " fill="transparent" style="stroke:#000000;stroke-width:1.5;"/><line style="stroke:#000000;stroke-width:1.5;" x1="30" x2="171.6592" y1="71.2969" y2="71.2969"/><text fill="#000000" font-family="sans-serif" font-size="14" font-weight="bold" lengthAdjust="spacing" textLength="128.6592" x="34" y="63.9951">ensea_java_final</text></g><!--class Body--><g id="elem_Body"><rect codeLine="2" fill="#F1F1F1" height="520.6094" id="Body" rx="2.5" ry="2.5" style="stroke:#181818;stroke-width:0.5;" width="1257.0977" x="46.5" y="749"/><ellipse cx="653.1279" cy="765" fill="#ADD1B2" rx="11" ry="11" style="stroke:#181818;stroke-width:1;"/><path d="M656.0967,770.6406 Q655.5186,770.9375 654.8779,771.0781 Q654.2373,771.2344 653.5342,771.2344 Q651.0342,771.2344 649.7061,769.5938 Q648.3936,767.9375 648.3936,764.8125 Q648.3936,761.6875 649.7061,760.0313 Q651.0342,758.375 653.5342,758.375 Q654.2373,758.375 654.8779,758.5313 Q655.5342,758.6875 656.0967,758.9844 L656.0967,761.7031 Q655.4717,761.125 654.8779,760.8594 Q654.2842,760.5781 653.6592,760.5781 Q652.3154,760.5781 651.6279,761.6563 Q650.9404,762.7188 650.9404,764.8125 Q650.9404,766.9063 651.6279,767.9844 Q652.3154,769.0469 653.6592,769.0469 Q654.2842,769.0469 654.8779,768.7813 Q655.4717,768.5 656.0967,767.9219 L656.0967,770.6406 Z " fill="#000000"/><text fill="#000000" font-family="sans-serif" font-size="14" lengthAdjust="spacing" textLength="35.3418" x="673.6279" y="769.8467">Body</text><line style="stroke:#181818;stroke-width:0.5;" x1="47.5" x2="1302.5977" y1="781" y2="781"/><rect fill="transparent" height="6" style="stroke:#C82930;stroke-width:1;" width="6" x="54.5" y="791.6484"/><text fill="#000000" font-family="sans-serif" font-size="14" lengthAdjust="spacing" textLength="53.9561" x="66.5" y="797.9951">b : float</text><ellipse cx="57.5" cy="810.9453" fill="transparent" rx="3" ry="3" style="stroke:#038048;stroke-width:1;"/><text fill="#000000" font-family="sans-serif" font-size="14" lengthAdjust="spacing" textLength="104.9111" x="66.5" y="814.292">fixed : Boolean</text><rect fill="transparent" height="6" style="stroke:#C82930;stroke-width:1;" width="6" x="54.5" y="824.2422"/><text fill="#000000" font-family="sans-serif" font-size="14" lengthAdjust="spacing" textLength="53.9561" x="66.5" y="830.5889">g : float</text><ellipse cx="57.5" cy="843.5391" fill="transparent" rx="3" ry="3" style="stroke:#038048;stroke-width:1;"/><text fill="#000000" font-family="sans-serif" font-size="14" lengthAdjust="spacing" textLength="107.8506" x="66.5" y="846.8857">height : Double</text><ellipse cx="57.5" cy="859.8359" fill="transparent" rx="3" ry="3" style="stroke:#038048;stroke-width:1;"/><text fill="#000000" font-family="sans-serif" font-size="14" lengthAdjust="spacing" textLength="146.4805" x="66.5" y="863.1826">innerRadius : Double</text><rect fill="transparent" height="6" style="stroke:#C82930;stroke-width:1;" width="6" x="54.5" y="873.1328"/><text fill="#000000" font-family="sans-serif" font-size="14" lengthAdjust="spacing" textLength="142.0371" x="66.5" y="879.4795">isColliding : Boolean</text><rect fill="transparent" height="6" style="stroke:#C82930;stroke-width:1;" width="6" x="54.5" y="889.4297"/><text fill="#000000" font-family="sans-serif" font-size="14" lengthAdjust="spacing" textLength="171.1924" x="66.5" y="895.7764">isEnvironment : Boolean</text><ellipse cx="57.5" cy="908.7266" fill="transparent" rx="3" ry="3" style="stroke:#038048;stroke-width:1;"/><text fill="#000000" font-family="sans-serif" font-size="14" lengthAdjust="spacing" textLength="100.0303" x="66.5" y="912.0732">mass : Double</text><ellipse cx="57.5" cy="925.0234" fill="transparent" rx="3" ry="3" style="stroke:#038048;stroke-width:1;"/><text fill="#000000" font-family="sans-serif" font-size="14" lengthAdjust="spacing" textLength="202.4258" x="66.5" y="928.3701">missingAngleExtent : Double</text><ellipse cx="57.5" cy="941.3203" fill="transparent" rx="3" ry="3" style="stroke:#038048;stroke-width:1;"/><text fill="#000000" font-family="sans-serif" font-size="14" lengthAdjust="spacing" textLength="191.0303" x="66.5" y="944.667">missingAngleStart : Double</text><rect fill="transparent" height="6" style="stroke:#C82930;stroke-width:1;" width="6" x="54.5" y="954.6172"/><text fill="#000000" font-family="sans-serif" font-size="14" lengthAdjust="spacing" textLength="50.8252" x="66.5" y="960.9639">r : float</text><ellipse cx="57.5" cy="973.9141" fill="transparent" rx="3" ry="3" style="stroke:#038048;stroke-width:1;"/><text fill="#000000" font-family="sans-serif" font-size="14" lengthAdjust="spacing" textLength="118.4326" x="66.5" y="977.2607">rotation : Double</text><ellipse cx="57.5" cy="990.2109" fill="transparent" rx="3" ry="3" style="stroke:#038048;stroke-width:1;"/><text fill="#000000" font-family="sans-serif" font-size="14" lengthAdjust="spacing" textLength="90.3711" x="66.5" y="993.5576">size : Double</text><rect fill="transparent" height="6" style="stroke:#C82930;stroke-width:1;" width="6" x="54.5" y="1003.5078"/><text fill="#000000" font-family="sans-serif" font-size="14" lengthAdjust="spacing" textLength="128.1123" x="66.5" y="1009.8545">textureId : Integer</text><rect fill="transparent" height="6" style="stroke:#C82930;stroke-width:1;" width="6" x="54.5" y="1019.8047"/><text fill="#000000" font-family="sans-serif" font-size="14" lengthAdjust="spacing" textLength="137.9014" x="66.5" y="1026.1514">texturePath : String</text><ellipse cx="57.5" cy="1039.1016" fill="transparent" rx="3" ry="3" style="stroke:#038048;stroke-width:1;"/><text fill="#000000" font-family="sans-serif" font-size="14" lengthAdjust="spacing" textLength="101.8145" x="66.5" y="1042.4482">width : Double</text><line style="stroke:#181818;stroke-width:0.5;" x1="47.5" x2="1302.5977" y1="1049.75" y2="1049.75"/><ellipse cx="57.5" cy="1063.3984" fill="#84BE84" rx="3" ry="3" style="stroke:#038048;stroke-width:1;"/><text fill="#000000" font-family="sans-serif" font-size="14" lengthAdjust="spacing" textLength="93.29" x="66.5" y="1066.7451">draw () : void</text><ellipse cx="57.5" cy="1079.6953" fill="#84BE84" rx="3" ry="3" style="stroke:#038048;stroke-width:1;"/><text fill="#000000" font-family="sans-serif" font-size="14" lengthAdjust="spacing" text-decoration="underline" textLength="678.9316" x="66.5" y="1083.042">drawCircle ( paramfloat1 : float , paramfloat2 : float , paramfloat3 : float , paramint4 : int ) : void</text><ellipse cx="57.5" cy="1095.9922" fill="#84BE84" rx="3" ry="3" style="stroke:#038048;stroke-width:1;"/><text fill="#000000" font-family="sans-serif" font-size="14" lengthAdjust="spacing" text-decoration="underline" textLength="1231.0977" x="66.5" y="1099.3389">drawHollowCircle ( paramfloat1 : float , paramfloat2 : float , paramfloat3 : float , paramfloat4 : float , paramint5 : int , paramDouble6 : Double , paramDouble7 : Double ) : void</text><ellipse cx="57.5" cy="1112.2891" fill="#84BE84" rx="3" ry="3" style="stroke:#038048;stroke-width:1;"/><text fill="#000000" font-family="sans-serif" font-size="14" lengthAdjust="spacing" text-decoration="underline" textLength="736.0801" x="66.5" y="1115.6357">drawRectangle ( paramfloat1 : float , paramfloat2 : float , paramfloat3 : float , paramfloat4 : float ) : void</text><ellipse cx="57.5" cy="1128.5859" fill="#84BE84" rx="3" ry="3" style="stroke:#038048;stroke-width:1;"/><text fill="#000000" font-family="sans-serif" font-size="14" lengthAdjust="spacing" text-decoration="underline" textLength="859.8174" x="66.5" y="1131.9326">drawTexturedCircle ( paramfloat1 : float , paramfloat2 : float , paramfloat3 : float , paramint4 : int , paramint5 : int ) : void</text><ellipse cx="57.5" cy="1144.8828" fill="#84BE84" rx="3" ry="3" style="stroke:#038048;stroke-width:1;"/><text fill="#000000" font-family="sans-serif" font-size="14" lengthAdjust="spacing" textLength="157.4111" x="66.5" y="1148.2295">isColliding () : Boolean</text><ellipse cx="57.5" cy="1161.1797" fill="#84BE84" rx="3" ry="3" style="stroke:#038048;stroke-width:1;"/><text fill="#000000" font-family="sans-serif" font-size="14" lengthAdjust="spacing" textLength="186.5664" x="66.5" y="1164.5264">isEnvironment () : Boolean</text><rect fill="#F24D5C" height="6" style="stroke:#C82930;stroke-width:1;" width="6" x="54.5" y="1174.4766"/><text fill="#000000" font-family="sans-serif" font-size="14" lengthAdjust="spacing" text-decoration="underline" textLength="291.7715" x="66.5" y="1180.8232">loadTexture ( paramString1 : String ) : int</text><ellipse cx="57.5" cy="1193.7734" fill="#84BE84" rx="3" ry="3" style="stroke:#038048;stroke-width:1;"/><text fill="#000000" font-family="sans-serif" font-size="14" lengthAdjust="spacing" textLength="459.6211" x="66.5" y="1197.1201">move ( paramVector2D1 : com.ensea_java_final.Vector2D ) : void</text><ellipse cx="57.5" cy="1210.0703" fill="#84BE84" rx="3" ry="3" style="stroke:#038048;stroke-width:1;"/><text fill="#000000" font-family="sans-serif" font-size="14" lengthAdjust="spacing" textLength="330.8047" x="66.5" y="1213.417">setColliding ( paramBoolean1 : Boolean ) : void</text><ellipse cx="57.5" cy="1226.3672" fill="#84BE84" rx="3" ry="3" style="stroke:#038048;stroke-width:1;"/><text fill="#000000" font-family="sans-serif" font-size="14" lengthAdjust="spacing" textLength="544.7695" x="66.5" y="1229.7139">setColor ( paramfloat1 : float , paramfloat2 : float , paramfloat3 : float ) : void</text><ellipse cx="57.5" cy="1242.6641" fill="#84BE84" rx="3" ry="3" style="stroke:#038048;stroke-width:1;"/><text fill="#000000" font-family="sans-serif" font-size="14" lengthAdjust="spacing" textLength="359.96" x="66.5" y="1246.0107">setEnvironment ( paramBoolean1 : Boolean ) : void</text><ellipse cx="57.5" cy="1258.9609" fill="#84BE84" rx="3" ry="3" style="stroke:#038048;stroke-width:1;"/><text fill="#000000" font-family="sans-serif" font-size="14" lengthAdjust="spacing" textLength="294.6221" x="66.5" y="1262.3076">setTexture ( paramString1 : String ) : void</text></g><!--class Body$Builder--><g id="elem_Body$Builder"><rect codeLine="35" fill="#F1F1F1" height="569.5" id="Body$Builder" rx="2.5" ry="2.5" style="stroke:#181818;stroke-width:0.5;" width="925.0146" x="1338.5" y="725"/><ellipse cx="1749.8765" cy="741" fill="#ADD1B2" rx="11" ry="11" style="stroke:#181818;stroke-width:1;"/><path d="M1752.8452,746.6406 Q1752.2671,746.9375 1751.6265,747.0781 Q1750.9858,747.2344 1750.2827,747.2344 Q1747.7827,747.2344 1746.4546,745.5938 Q1745.1421,743.9375 1745.1421,740.8125 Q1745.1421,737.6875 1746.4546,736.0313 Q1747.7827,734.375 1750.2827,734.375 Q1750.9858,734.375 1751.6265,734.5313 Q1752.2827,734.6875 1752.8452,734.9844 L1752.8452,737.7031 Q1752.2202,737.125 1751.6265,736.8594 Q1751.0327,736.5781 1750.4077,736.5781 Q1749.064,736.5781 1748.3765,737.6563 Q1747.689,738.7188 1747.689,740.8125 Q1747.689,742.9063 1748.3765,743.9844 Q1749.064,745.0469 1750.4077,745.0469 Q1751.0327,745.0469 1751.6265,744.7813 Q1752.2202,744.5 1752.8452,743.9219 L1752.8452,746.6406 Z " fill="#000000"/><text fill="#000000" font-family="sans-serif" font-size="14" lengthAdjust="spacing" textLength="93.7617" x="1770.3765" y="745.8467">Body$Builder</text><line style="stroke:#181818;stroke-width:0.5;" x1="1339.5" x2="2262.5146" y1="757" y2="757"/><rect fill="transparent" height="6" style="stroke:#C82930;stroke-width:1;" width="6" x="1346.5" y="767.6484"/><text fill="#000000" font-family="sans-serif" font-size="14" lengthAdjust="spacing" textLength="53.9561" x="1358.5" y="773.9951">b : float</text><rect fill="transparent" height="6" style="stroke:#C82930;stroke-width:1;" width="6" x="1346.5" y="783.9453"/><text fill="#000000" font-family="sans-serif" font-size="14" lengthAdjust="spacing" textLength="104.9111" x="1358.5" y="790.292">fixed : Boolean</text><rect fill="transparent" height="6" style="stroke:#C82930;stroke-width:1;" width="6" x="1346.5" y="800.2422"/><text fill="#000000" font-family="sans-serif" font-size="14" lengthAdjust="spacing" textLength="53.9561" x="1358.5" y="806.5889">g : float</text><rect fill="transparent" height="6" style="stroke:#C82930;stroke-width:1;" width="6" x="1346.5" y="816.5391"/><text fill="#000000" font-family="sans-serif" font-size="14" lengthAdjust="spacing" textLength="107.8506" x="1358.5" y="822.8857">height : Double</text><rect fill="transparent" height="6" style="stroke:#C82930;stroke-width:1;" width="6" x="1346.5" y="832.8359"/><text fill="#000000" font-family="sans-serif" font-size="14" lengthAdjust="spacing" textLength="146.4805" x="1358.5" y="839.1826">innerRadius : Double</text><rect fill="transparent" height="6" style="stroke:#C82930;stroke-width:1;" width="6" x="1346.5" y="849.1328"/><text fill="#000000" font-family="sans-serif" font-size="14" lengthAdjust="spacing" textLength="142.0371" x="1358.5" y="855.4795">isColliding : Boolean</text><rect fill="transparent" height="6" style="stroke:#C82930;stroke-width:1;" width="6" x="1346.5" y="865.4297"/><text fill="#000000" font-family="sans-serif" font-size="14" lengthAdjust="spacing" textLength="171.1924" x="1358.5" y="871.7764">isEnvironment : Boolean</text><rect fill="transparent" height="6" style="stroke:#C82930;stroke-width:1;" width="6" x="1346.5" y="881.7266"/><text fill="#000000" font-family="sans-serif" font-size="14" lengthAdjust="spacing" textLength="100.0303" x="1358.5" y="888.0732">mass : Double</text><rect fill="transparent" height="6" style="stroke:#C82930;stroke-width:1;" width="6" x="1346.5" y="898.0234"/><text fill="#000000" font-family="sans-serif" font-size="14" lengthAdjust="spacing" textLength="202.4258" x="1358.5" y="904.3701">missingAngleExtent : Double</text><rect fill="transparent" height="6" style="stroke:#C82930;stroke-width:1;" width="6" x="1346.5" y="914.3203"/><text fill="#000000" font-family="sans-serif" font-size="14" lengthAdjust="spacing" textLength="191.0303" x="1358.5" y="920.667">missingAngleStart : Double</text><rect fill="transparent" height="6" style="stroke:#C82930;stroke-width:1;" width="6" x="1346.5" y="930.6172"/><text fill="#000000" font-family="sans-serif" font-size="14" lengthAdjust="spacing" textLength="50.8252" x="1358.5" y="936.9639">r : float</text><rect fill="transparent" height="6" style="stroke:#C82930;stroke-width:1;" width="6" x="1346.5" y="946.9141"/><text fill="#000000" font-family="sans-serif" font-size="14" lengthAdjust="spacing" textLength="118.4326" x="1358.5" y="953.2607">rotation : Double</text><rect fill="transparent" height="6" style="stroke:#C82930;stroke-width:1;" width="6" x="1346.5" y="963.2109"/><text fill="#000000" font-family="sans-serif" font-size="14" lengthAdjust="spacing" textLength="90.3711" x="1358.5" y="969.5576">size : Double</text><rect fill="transparent" height="6" style="stroke:#C82930;stroke-width:1;" width="6" x="1346.5" y="979.5078"/><text fill="#000000" font-family="sans-serif" font-size="14" lengthAdjust="spacing" textLength="137.9014" x="1358.5" y="985.8545">texturePath : String</text><rect fill="transparent" height="6" style="stroke:#C82930;stroke-width:1;" width="6" x="1346.5" y="995.8047"/><text fill="#000000" font-family="sans-serif" font-size="14" lengthAdjust="spacing" textLength="79.7959" x="1358.5" y="1002.1514">vx : Double</text><rect fill="transparent" height="6" style="stroke:#C82930;stroke-width:1;" width="6" x="1346.5" y="1012.1016"/><text fill="#000000" font-family="sans-serif" font-size="14" lengthAdjust="spacing" textLength="79.7959" x="1358.5" y="1018.4482">vy : Double</text><rect fill="transparent" height="6" style="stroke:#C82930;stroke-width:1;" width="6" x="1346.5" y="1028.3984"/><text fill="#000000" font-family="sans-serif" font-size="14" lengthAdjust="spacing" textLength="101.8145" x="1358.5" y="1034.7451">width : Double</text><rect fill="transparent" height="6" style="stroke:#C82930;stroke-width:1;" width="6" x="1346.5" y="1044.6953"/><text fill="#000000" font-family="sans-serif" font-size="14" lengthAdjust="spacing" textLength="71.5107" x="1358.5" y="1051.042">x : Double</text><rect fill="transparent" height="6" style="stroke:#C82930;stroke-width:1;" width="6" x="1346.5" y="1060.9922"/><text fill="#000000" font-family="sans-serif" font-size="14" lengthAdjust="spacing" textLength="71.5107" x="1358.5" y="1067.3389">y : Double</text><line style="stroke:#181818;stroke-width:0.5;" x1="1339.5" x2="2262.5146" y1="1074.6406" y2="1074.6406"/><ellipse cx="1349.5" cy="1088.2891" fill="#84BE84" rx="3" ry="3" style="stroke:#038048;stroke-width:1;"/><text fill="#000000" font-family="sans-serif" font-size="14" lengthAdjust="spacing" textLength="253.0254" x="1358.5" y="1091.6357">build () : com.ensea_java_final.Body</text><ellipse cx="1349.5" cy="1104.5859" fill="#84BE84" rx="3" ry="3" style="stroke:#038048;stroke-width:1;"/><text fill="#000000" font-family="sans-serif" font-size="14" lengthAdjust="spacing" textLength="739.6963" x="1358.5" y="1107.9326">color ( paramfloat1 : float , paramfloat2 : float , paramfloat3 : float ) : com.ensea_java_final.Body$Builder</text><ellipse cx="1349.5" cy="1120.8828" fill="#84BE84" rx="3" ry="3" style="stroke:#038048;stroke-width:1;"/><text fill="#000000" font-family="sans-serif" font-size="14" lengthAdjust="spacing" textLength="556.7324" x="1358.5" y="1124.2295">environment ( paramBoolean1 : Boolean ) : com.ensea_java_final.Body$Builder</text><ellipse cx="1349.5" cy="1137.1797" fill="#84BE84" rx="3" ry="3" style="stroke:#038048;stroke-width:1;"/><text fill="#000000" font-family="sans-serif" font-size="14" lengthAdjust="spacing" textLength="501.8672" x="1358.5" y="1140.5264">fixed ( paramBoolean1 : Boolean ) : com.ensea_java_final.Body$Builder</text><ellipse cx="1349.5" cy="1153.4766" fill="#84BE84" rx="3" ry="3" style="stroke:#038048;stroke-width:1;"/><text fill="#000000" font-family="sans-serif" font-size="14" lengthAdjust="spacing" textLength="899.0146" x="1358.5" y="1156.8232">hollowCircle ( paramDouble1 : Double , paramDouble2 : Double , paramDouble3 : Double ) : com.ensea_java_final.Body$Builder</text><ellipse cx="1349.5" cy="1169.7734" fill="#84BE84" rx="3" ry="3" style="stroke:#038048;stroke-width:1;"/><text fill="#000000" font-family="sans-serif" font-size="14" lengthAdjust="spacing" textLength="489.9043" x="1358.5" y="1173.1201">mass ( paramDouble1 : Double ) : com.ensea_java_final.Body$Builder</text><ellipse cx="1349.5" cy="1186.0703" fill="#84BE84" rx="3" ry="3" style="stroke:#038048;stroke-width:1;"/><text fill="#000000" font-family="sans-serif" font-size="14" lengthAdjust="spacing" textLength="689.083" x="1358.5" y="1189.417">position ( paramDouble1 : Double , paramDouble2 : Double ) : com.ensea_java_final.Body$Builder</text><ellipse cx="1349.5" cy="1202.3672" fill="#84BE84" rx="3" ry="3" style="stroke:#038048;stroke-width:1;"/><text fill="#000000" font-family="sans-serif" font-size="14" lengthAdjust="spacing" textLength="700.0273" x="1358.5" y="1205.7139">rectangle ( paramDouble1 : Double , paramDouble2 : Double ) : com.ensea_java_final.Body$Builder</text><ellipse cx="1349.5" cy="1218.6641" fill="#84BE84" rx="3" ry="3" style="stroke:#038048;stroke-width:1;"/><text fill="#000000" font-family="sans-serif" font-size="14" lengthAdjust="spacing" textLength="508.3066" x="1358.5" y="1222.0107">rotation ( paramDouble1 : Double ) : com.ensea_java_final.Body$Builder</text><ellipse cx="1349.5" cy="1234.9609" fill="#84BE84" rx="3" ry="3" style="stroke:#038048;stroke-width:1;"/><text fill="#000000" font-family="sans-serif" font-size="14" lengthAdjust="spacing" textLength="795.2451" x="1358.5" y="1238.3076">shape ( paramBody$ShapeType1 : com.ensea_java_final.Body$ShapeType ) : com.ensea_java_final.Body$Builder</text><ellipse cx="1349.5" cy="1251.2578" fill="#84BE84" rx="3" ry="3" style="stroke:#038048;stroke-width:1;"/><text fill="#000000" font-family="sans-serif" font-size="14" lengthAdjust="spacing" textLength="480.2451" x="1358.5" y="1254.6045">size ( paramDouble1 : Double ) : com.ensea_java_final.Body$Builder</text><ellipse cx="1349.5" cy="1267.5547" fill="#84BE84" rx="3" ry="3" style="stroke:#038048;stroke-width:1;"/><text fill="#000000" font-family="sans-serif" font-size="14" lengthAdjust="spacing" textLength="488.5645" x="1358.5" y="1270.9014">texture ( paramString1 : String ) : com.ensea_java_final.Body$Builder</text><ellipse cx="1349.5" cy="1283.8516" fill="#84BE84" rx="3" ry="3" style="stroke:#038048;stroke-width:1;"/><text fill="#000000" font-family="sans-serif" font-size="14" lengthAdjust="spacing" textLength="688.3447" x="1358.5" y="1287.1982">velocity ( paramDouble1 : Double , paramDouble2 : Double ) : com.ensea_java_final.Body$Builder</text></g><!--class Body$ShapeType--><g id="elem_Body$ShapeType"><rect codeLine="71" fill="#F1F1F1" height="96.8906" id="Body$ShapeType" rx="2.5" ry="2.5" style="stroke:#181818;stroke-width:0.5;" width="154.4248" x="1390" y="1436"/><ellipse cx="1405" cy="1452" fill="#EB937F" rx="11" ry="11" style="stroke:#181818;stroke-width:1;"/><path d="M1409.1094,1458 L1401.3906,1458 L1401.3906,1445.6094 L1409.1094,1445.6094 L1409.1094,1447.7656 L1403.8438,1447.7656 L1403.8438,1450.4375 L1408.6094,1450.4375 L1408.6094,1452.5938 L1403.8438,1452.5938 L1403.8438,1455.8438 L1409.1094,1455.8438 L1409.1094,1458 Z " fill="#000000"/><text fill="#000000" font-family="sans-serif" font-size="14" lengthAdjust="spacing" textLength="122.4248" x="1419" y="1456.8467">Body$ShapeType</text><line style="stroke:#181818;stroke-width:0.5;" x1="1391" x2="1543.4248" y1="1468" y2="1468"/><ellipse cx="1401" cy="1481.6484" fill="transparent" rx="3" ry="3" style="stroke:#038048;stroke-width:1;"/><text fill="#000000" font-family="sans-serif" font-size="14" lengthAdjust="spacing" textLength="50.0527" x="1410" y="1484.9951">CIRCLE</text><ellipse cx="1401" cy="1497.9453" fill="transparent" rx="3" ry="3" style="stroke:#038048;stroke-width:1;"/><text fill="#000000" font-family="sans-serif" font-size="14" lengthAdjust="spacing" textLength="119.0615" x="1410" y="1501.292">HOLLOW_CIRCLE</text><ellipse cx="1401" cy="1514.2422" fill="transparent" rx="3" ry="3" style="stroke:#038048;stroke-width:1;"/><text fill="#000000" font-family="sans-serif" font-size="14" lengthAdjust="spacing" textLength="84.4443" x="1410" y="1517.5889">RECTANGLE</text><line style="stroke:#181818;stroke-width:0.5;" x1="1391" x2="1543.4248" y1="1524.8906" y2="1524.8906"/></g><!--class Main--><g id="elem_Main"><rect codeLine="78" fill="#F1F1F1" height="129.4844" id="Main" rx="2.5" ry="2.5" style="stroke:#181818;stroke-width:0.5;" width="371.1807" x="901.5" y="108.5"/><ellipse cx="1066.1299" cy="124.5" fill="#ADD1B2" rx="11" ry="11" style="stroke:#181818;stroke-width:1;"/><path d="M1069.0986,130.1406 Q1068.5205,130.4375 1067.8799,130.5781 Q1067.2393,130.7344 1066.5361,130.7344 Q1064.0361,130.7344 1062.708,129.0938 Q1061.3955,127.4375 1061.3955,124.3125 Q1061.3955,121.1875 1062.708,119.5313 Q1064.0361,117.875 1066.5361,117.875 Q1067.2393,117.875 1067.8799,118.0313 Q1068.5361,118.1875 1069.0986,118.4844 L1069.0986,121.2031 Q1068.4736,120.625 1067.8799,120.3594 Q1067.2861,120.0781 1066.6611,120.0781 Q1065.3174,120.0781 1064.6299,121.1563 Q1063.9424,122.2188 1063.9424,124.3125 Q1063.9424,126.4063 1064.6299,127.4844 Q1065.3174,128.5469 1066.6611,128.5469 Q1067.2861,128.5469 1067.8799,128.2813 Q1068.4736,128 1069.0986,127.4219 L1069.0986,130.1406 Z " fill="#000000"/><text fill="#000000" font-family="sans-serif" font-size="14" lengthAdjust="spacing" textLength="33.4209" x="1086.6299" y="129.3467">Main</text><line style="stroke:#181818;stroke-width:0.5;" x1="902.5" x2="1271.6807" y1="140.5" y2="140.5"/><rect fill="transparent" height="6" style="stroke:#C82930;stroke-width:1;" width="6" x="909.5" y="151.1484"/><text fill="#000000" font-family="sans-serif" font-size="14" lengthAdjust="spacing" textLength="96.9473" x="921.5" y="157.4951">window : long</text><line style="stroke:#181818;stroke-width:0.5;" x1="902.5" x2="1271.6807" y1="164.7969" y2="164.7969"/><rect fill="#F24D5C" height="6" style="stroke:#C82930;stroke-width:1;" width="6" x="909.5" y="175.4453"/><text fill="#000000" font-family="sans-serif" font-size="14" lengthAdjust="spacing" textLength="142.584" x="921.5" y="181.792">handleInput () : void</text><rect fill="#F24D5C" height="6" style="stroke:#C82930;stroke-width:1;" width="6" x="909.5" y="191.7422"/><text fill="#000000" font-family="sans-serif" font-size="14" lengthAdjust="spacing" textLength="88.5254" x="921.5" y="198.0889">loop () : void</text><ellipse cx="912.5" cy="211.0391" fill="#84BE84" rx="3" ry="3" style="stroke:#038048;stroke-width:1;"/><text fill="#000000" font-family="sans-serif" font-size="14" lengthAdjust="spacing" text-decoration="underline" textLength="345.1807" x="921.5" y="214.3857">main ( paramString;1 : [Ljava.lang.String; ) : void</text><ellipse cx="912.5" cy="227.3359" fill="#84BE84" rx="3" ry="3" style="stroke:#038048;stroke-width:1;"/><text fill="#000000" font-family="sans-serif" font-size="14" lengthAdjust="spacing" textLength="82.1201" x="921.5" y="230.6826">run () : void</text></g><!--class PhysicsEngine--><g id="elem_PhysicsEngine"><rect codeLine="87" fill="#F1F1F1" height="308.75" id="PhysicsEngine" rx="2.5" ry="2.5" style="stroke:#181818;stroke-width:0.5;" width="958.9824" x="707.5" y="339"/><ellipse cx="1132.8628" cy="355" fill="#ADD1B2" rx="11" ry="11" style="stroke:#181818;stroke-width:1;"/><path d="M1135.8315,360.6406 Q1135.2534,360.9375 1134.6128,361.0781 Q1133.9722,361.2344 1133.269,361.2344 Q1130.769,361.2344 1129.4409,359.5938 Q1128.1284,357.9375 1128.1284,354.8125 Q1128.1284,351.6875 1129.4409,350.0313 Q1130.769,348.375 1133.269,348.375 Q1133.9722,348.375 1134.6128,348.5313 Q1135.269,348.6875 1135.8315,348.9844 L1135.8315,351.7031 Q1135.2065,351.125 1134.6128,350.8594 Q1134.019,350.5781 1133.394,350.5781 Q1132.0503,350.5781 1131.3628,351.6563 Q1130.6753,352.7188 1130.6753,354.8125 Q1130.6753,356.9063 1131.3628,357.9844 Q1132.0503,359.0469 1133.394,359.0469 Q1134.019,359.0469 1134.6128,358.7813 Q1135.2065,358.5 1135.8315,357.9219 L1135.8315,360.6406 Z " fill="#000000"/><text fill="#000000" font-family="sans-serif" font-size="14" lengthAdjust="spacing" textLength="99.7568" x="1153.3628" y="359.8467">PhysicsEngine</text><line style="stroke:#181818;stroke-width:0.5;" x1="708.5" x2="1665.4824" y1="371" y2="371"/><rect fill="transparent" height="6" style="stroke:#C82930;stroke-width:1;" width="6" x="715.5" y="381.6484"/><text fill="#000000" font-family="sans-serif" font-size="14" lengthAdjust="spacing" textLength="169.6406" x="727.5" y="387.9951">adjustedDeltaT : Double</text><rect fill="transparent" height="6" style="stroke:#C82930;stroke-width:1;" width="6" x="715.5" y="397.9453"/><text fill="#000000" font-family="sans-serif" font-size="14" lengthAdjust="spacing" textLength="330.3945" x="727.5" y="404.292">executor : java.util.concurrent.ExecutorService</text><rect fill="transparent" height="6" style="stroke:#C82930;stroke-width:1;" width="6" x="715.5" y="414.2422"/><text fill="#000000" font-family="sans-serif" font-size="14" lengthAdjust="spacing" textLength="222.8242" x="727.5" y="420.5889">gravityDict : java.util.Dictionary</text><rect fill="transparent" height="6" style="stroke:#C82930;stroke-width:1;" width="6" x="715.5" y="430.5391"/><text fill="#000000" font-family="sans-serif" font-size="14" lengthAdjust="spacing" textLength="138.9063" x="727.5" y="436.8857">gravityType : String</text><rect fill="transparent" height="6" style="stroke:#C82930;stroke-width:1;" width="6" x="715.5" y="446.8359"/><text fill="#000000" font-family="sans-serif" font-size="14" lengthAdjust="spacing" textLength="182.1094" x="727.5" y="453.1826">simulationDeltaT : Double</text><ellipse cx="718.5" cy="466.1328" fill="transparent" rx="3" ry="3" style="stroke:#038048;stroke-width:1;"/><text fill="#000000" font-family="sans-serif" font-size="14" lengthAdjust="spacing" textLength="132.5215" x="727.5" y="469.4795">timeScale : Double</text><line style="stroke:#181818;stroke-width:0.5;" x1="708.5" x2="1665.4824" y1="476.7813" y2="476.7813"/><ellipse cx="718.5" cy="490.4297" fill="#84BE84" rx="3" ry="3" style="stroke:#038048;stroke-width:1;"/><text fill="#000000" font-family="sans-serif" font-size="14" lengthAdjust="spacing" textLength="513.8301" x="727.5" y="493.7764">applyGravity ( paramboolean1 : boolean , paramdouble2 : double ) : void</text><ellipse cx="718.5" cy="506.7266" fill="#84BE84" rx="3" ry="3" style="stroke:#038048;stroke-width:1;"/><text fill="#000000" font-family="sans-serif" font-size="14" lengthAdjust="spacing" textLength="932.9824" x="727.5" y="510.0732">bodyGravity ( paramBody1 : com.ensea_java_final.Body , paramBody2 : com.ensea_java_final.Body , paramDouble3 : Double ) : void</text><ellipse cx="718.5" cy="523.0234" fill="#84BE84" rx="3" ry="3" style="stroke:#038048;stroke-width:1;"/><text fill="#000000" font-family="sans-serif" font-size="14" lengthAdjust="spacing" textLength="666.2236" x="727.5" y="526.3701">directionalGravity ( paramBody1 : com.ensea_java_final.Body , paramDouble2 : Double ) : void</text><ellipse cx="718.5" cy="539.3203" fill="#84BE84" rx="3" ry="3" style="stroke:#038048;stroke-width:1;"/><text fill="#000000" font-family="sans-serif" font-size="14" lengthAdjust="spacing" textLength="144.5732" x="727.5" y="542.667">moveBodies () : void</text><rect fill="#F24D5C" height="6" style="stroke:#C82930;stroke-width:1;" width="6" x="715.5" y="552.6172"/><text fill="#000000" font-family="sans-serif" font-size="14" lengthAdjust="spacing" textLength="782.9199" x="727.5" y="558.9639">rectsOverlap ( paramBody1 : com.ensea_java_final.Body , paramBody2 : com.ensea_java_final.Body ) : boolean</text><rect fill="#F24D5C" height="6" style="stroke:#C82930;stroke-width:1;" width="6" x="715.5" y="568.9141"/><text fill="#000000" font-family="sans-serif" font-size="14" lengthAdjust="spacing" textLength="776.3438" x="727.5" y="575.2607">resolveCollision ( paramBody1 : com.ensea_java_final.Body , paramBody2 : com.ensea_java_final.Body ) : void</text><ellipse cx="718.5" cy="588.2109" fill="#84BE84" rx="3" ry="3" style="stroke:#038048;stroke-width:1;"/><text fill="#000000" font-family="sans-serif" font-size="14" lengthAdjust="spacing" textLength="175.5605" x="727.5" y="591.5576">resolveCollisions () : void</text><ellipse cx="718.5" cy="604.5078" fill="#84BE84" rx="3" ry="3" style="stroke:#038048;stroke-width:1;"/><text fill="#000000" font-family="sans-serif" font-size="14" lengthAdjust="spacing" textLength="189.0479" x="727.5" y="607.8545">shutdownExecutor () : void</text><ellipse cx="718.5" cy="620.8047" fill="#84BE84" rx="3" ry="3" style="stroke:#038048;stroke-width:1;"/><text fill="#000000" font-family="sans-serif" font-size="14" lengthAdjust="spacing" textLength="107.9463" x="727.5" y="624.1514">update () : void</text><rect fill="#F24D5C" height="6" style="stroke:#C82930;stroke-width:1;" width="6" x="715.5" y="634.1016"/><text fill="#000000" font-family="sans-serif" font-size="14" lengthAdjust="spacing" textLength="150.2266" x="727.5" y="640.4482">waitForTasks () : void</text></g><!--class Vector2D--><g id="elem_Vector2D"><rect codeLine="107" fill="#F1F1F1" height="227.2656" id="Vector2D" rx="2.5" ry="2.5" style="stroke:#181818;stroke-width:0.5;" width="694.6094" x="327.5" y="1371"/><ellipse cx="637.8618" cy="1387" fill="#ADD1B2" rx="11" ry="11" style="stroke:#181818;stroke-width:1;"/><path d="M640.8306,1392.6406 Q640.2524,1392.9375 639.6118,1393.0781 Q638.9712,1393.2344 638.2681,1393.2344 Q635.7681,1393.2344 634.4399,1391.5938 Q633.1274,1389.9375 633.1274,1386.8125 Q633.1274,1383.6875 634.4399,1382.0313 Q635.7681,1380.375 638.2681,1380.375 Q638.9712,1380.375 639.6118,1380.5313 Q640.2681,1380.6875 640.8306,1380.9844 L640.8306,1383.7031 Q640.2056,1383.125 639.6118,1382.8594 Q639.0181,1382.5781 638.3931,1382.5781 Q637.0493,1382.5781 636.3618,1383.6563 Q635.6743,1384.7188 635.6743,1386.8125 Q635.6743,1388.9063 636.3618,1389.9844 Q637.0493,1391.0469 638.3931,1391.0469 Q639.0181,1391.0469 639.6118,1390.7813 Q640.2056,1390.5 640.8306,1389.9219 L640.8306,1392.6406 Z " fill="#000000"/><text fill="#000000" font-family="sans-serif" font-size="14" lengthAdjust="spacing" textLength="65.3857" x="658.3618" y="1391.8467">Vector2D</text><line style="stroke:#181818;stroke-width:0.5;" x1="328.5" x2="1021.1094" y1="1403" y2="1403"/><ellipse cx="338.5" cy="1416.6484" fill="transparent" rx="3" ry="3" style="stroke:#038048;stroke-width:1;"/><text fill="#000000" font-family="sans-serif" font-size="14" lengthAdjust="spacing" textLength="71.5107" x="347.5" y="1419.9951">x : Double</text><ellipse cx="338.5" cy="1432.9453" fill="transparent" rx="3" ry="3" style="stroke:#038048;stroke-width:1;"/><text fill="#000000" font-family="sans-serif" font-size="14" lengthAdjust="spacing" textLength="71.5107" x="347.5" y="1436.292">y : Double</text><line style="stroke:#181818;stroke-width:0.5;" x1="328.5" x2="1021.1094" y1="1443.5938" y2="1443.5938"/><ellipse cx="338.5" cy="1457.2422" fill="#84BE84" rx="3" ry="3" style="stroke:#038048;stroke-width:1;"/><text fill="#000000" font-family="sans-serif" font-size="14" lengthAdjust="spacing" textLength="636.8975" x="347.5" y="1460.5889">add ( paramVector2D1 : com.ensea_java_final.Vector2D ) : com.ensea_java_final.Vector2D</text><ellipse cx="338.5" cy="1473.5391" fill="#84BE84" rx="3" ry="3" style="stroke:#038048;stroke-width:1;"/><text fill="#000000" font-family="sans-serif" font-size="14" lengthAdjust="spacing" textLength="499.8232" x="347.5" y="1476.8857">distance ( paramVector2D1 : com.ensea_java_final.Vector2D ) : Double</text><ellipse cx="338.5" cy="1489.8359" fill="#84BE84" rx="3" ry="3" style="stroke:#038048;stroke-width:1;"/><text fill="#000000" font-family="sans-serif" font-size="14" lengthAdjust="spacing" textLength="463.4424" x="347.5" y="1493.1826">dot ( paramVector2D1 : com.ensea_java_final.Vector2D ) : Double</text><ellipse cx="338.5" cy="1506.1328" fill="#84BE84" rx="3" ry="3" style="stroke:#038048;stroke-width:1;"/><text fill="#000000" font-family="sans-serif" font-size="14" lengthAdjust="spacing" textLength="154.3281" x="347.5" y="1509.4795">magnitude () : Double</text><ellipse cx="338.5" cy="1522.4297" fill="#84BE84" rx="3" ry="3" style="stroke:#038048;stroke-width:1;"/><text fill="#000000" font-family="sans-serif" font-size="14" lengthAdjust="spacing" textLength="317.7959" x="347.5" y="1525.7764">normalize () : com.ensea_java_final.Vector2D</text><ellipse cx="338.5" cy="1538.7266" fill="#84BE84" rx="3" ry="3" style="stroke:#038048;stroke-width:1;"/><text fill="#000000" font-family="sans-serif" font-size="14" lengthAdjust="spacing" textLength="460.7969" x="347.5" y="1542.0732">scale ( paramDouble1 : Double ) : com.ensea_java_final.Vector2D</text><ellipse cx="338.5" cy="1555.0234" fill="#84BE84" rx="3" ry="3" style="stroke:#038048;stroke-width:1;"/><text fill="#000000" font-family="sans-serif" font-size="14" lengthAdjust="spacing" textLength="646.6182" x="347.5" y="1558.3701">scale ( paramVector2D1 : com.ensea_java_final.Vector2D ) : com.ensea_java_final.Vector2D</text><ellipse cx="338.5" cy="1571.3203" fill="#84BE84" rx="3" ry="3" style="stroke:#038048;stroke-width:1;"/><text fill="#000000" font-family="sans-serif" font-size="14" lengthAdjust="spacing" textLength="668.6094" x="347.5" y="1574.667">subtract ( paramVector2D1 : com.ensea_java_final.Vector2D ) : com.ensea_java_final.Vector2D</text><ellipse cx="338.5" cy="1587.6172" fill="#84BE84" rx="3" ry="3" style="stroke:#038048;stroke-width:1;"/><text fill="#000000" font-family="sans-serif" font-size="14" lengthAdjust="spacing" textLength="126.6084" x="347.5" y="1590.9639">toString () : String</text></g><!--class WindowManager--><g id="elem_WindowManager"><rect codeLine="122" fill="#F1F1F1" height="178.375" id="WindowManager" rx="2.5" ry="2.5" style="stroke:#181818;stroke-width:0.5;" width="502.8203" x="257.5" y="84"/><ellipse cx="446.2231" cy="100" fill="#ADD1B2" rx="11" ry="11" style="stroke:#181818;stroke-width:1;"/><path d="M449.1919,105.6406 Q448.6138,105.9375 447.9731,106.0781 Q447.3325,106.2344 446.6294,106.2344 Q444.1294,106.2344 442.8013,104.5938 Q441.4888,102.9375 441.4888,99.8125 Q441.4888,96.6875 442.8013,95.0313 Q444.1294,93.375 446.6294,93.375 Q447.3325,93.375 447.9731,93.5313 Q448.6294,93.6875 449.1919,93.9844 L449.1919,96.7031 Q448.5669,96.125 447.9731,95.8594 Q447.3794,95.5781 446.7544,95.5781 Q445.4106,95.5781 444.7231,96.6563 Q444.0356,97.7188 444.0356,99.8125 Q444.0356,101.9063 444.7231,102.9844 Q445.4106,104.0469 446.7544,104.0469 Q447.3794,104.0469 447.9731,103.7813 Q448.5669,103.5 449.1919,102.9219 L449.1919,105.6406 Z " fill="#000000"/><text fill="#000000" font-family="sans-serif" font-size="14" lengthAdjust="spacing" textLength="116.874" x="466.7231" y="104.8467">WindowManager</text><line style="stroke:#181818;stroke-width:0.5;" x1="258.5" x2="759.3203" y1="116" y2="116"/><ellipse cx="268.5" cy="129.6484" fill="transparent" rx="3" ry="3" style="stroke:#038048;stroke-width:1;"/><text fill="#000000" font-family="sans-serif" font-size="14" lengthAdjust="spacing" text-decoration="underline" textLength="165.0195" x="277.5" y="132.9951">BOTTOM_BOUND : float</text><ellipse cx="268.5" cy="145.9453" fill="transparent" rx="3" ry="3" style="stroke:#038048;stroke-width:1;"/><text fill="#000000" font-family="sans-serif" font-size="14" lengthAdjust="spacing" text-decoration="underline" textLength="137.4434" x="277.5" y="149.292">LEFT_BOUND : float</text><ellipse cx="268.5" cy="162.2422" fill="transparent" rx="3" ry="3" style="stroke:#038048;stroke-width:1;"/><text fill="#000000" font-family="sans-serif" font-size="14" lengthAdjust="spacing" text-decoration="underline" textLength="147.9775" x="277.5" y="165.5889">RIGHT_BOUND : float</text><ellipse cx="268.5" cy="178.5391" fill="transparent" rx="3" ry="3" style="stroke:#038048;stroke-width:1;"/><text fill="#000000" font-family="sans-serif" font-size="14" lengthAdjust="spacing" text-decoration="underline" textLength="132.207" x="277.5" y="181.8857">TOP_BOUND : float</text><rect fill="transparent" height="6" style="stroke:#C82930;stroke-width:1;" width="6" x="265.5" y="191.8359"/><text fill="#000000" font-family="sans-serif" font-size="14" lengthAdjust="spacing" text-decoration="underline" textLength="96.9473" x="277.5" y="198.1826">window : long</text><line style="stroke:#181818;stroke-width:0.5;" x1="258.5" x2="759.3203" y1="205.4844" y2="205.4844"/><ellipse cx="268.5" cy="219.1328" fill="#84BE84" rx="3" ry="3" style="stroke:#038048;stroke-width:1;"/><text fill="#000000" font-family="sans-serif" font-size="14" lengthAdjust="spacing" text-decoration="underline" textLength="114.0303" x="277.5" y="222.4795">cleanup () : void</text><ellipse cx="268.5" cy="235.4297" fill="#84BE84" rx="3" ry="3" style="stroke:#038048;stroke-width:1;"/><text fill="#000000" font-family="sans-serif" font-size="14" lengthAdjust="spacing" text-decoration="underline" textLength="476.8203" x="277.5" y="238.7764">init ( paramint1 : int , paramint2 : int , paramString3 : String ) : void</text><ellipse cx="268.5" cy="251.7266" fill="#84BE84" rx="3" ry="3" style="stroke:#038048;stroke-width:1;"/><text fill="#000000" font-family="sans-serif" font-size="14" lengthAdjust="spacing" text-decoration="underline" textLength="107.9463" x="277.5" y="255.0732">update () : void</text></g><!--link Body to Body$ShapeType--><g id="link_Body_Body$ShapeType"><path codeLine="136" d="M1109.52,1270.01 C1217.72,1334.63 1316.9087,1393.8635 1384.6387,1434.3135 " fill="transparent" id="Body-to-Body$ShapeType" style="stroke:#181818;stroke-width:1;"/><polygon fill="#181818" points="1389.79,1437.39,1384.1141,1429.3411,1385.4973,1434.8263,1380.0121,1436.2095,1389.79,1437.39" style="stroke:#181818;stroke-width:1;"/><text fill="#000000" font-family="sans-serif" font-size="13" lengthAdjust="spacing" textLength="39.2285" x="1211" y="1337.0669">shape</text></g><!--link Body to Vector2D--><g id="link_Body_Vector2D"><path codeLine="137" d="M539.74,1270.27 C538.46,1294.18 541.36,1318.04 550,1341 C553.83,1351.16 555.6793,1355.9094 561.3493,1365.4694 " fill="transparent" id="Body-to-Vector2D" style="stroke:#181818;stroke-width:1;"/><polygon fill="#181818" points="564.41,1370.63,563.2593,1360.8486,561.8594,1366.3295,556.3785,1364.9296,564.41,1370.63" style="stroke:#181818;stroke-width:1;"/><text fill="#000000" font-family="sans-serif" font-size="13" lengthAdjust="spacing" textLength="80.082" x="551" y="1337.0669">acceleration</text></g><!--link Body to Vector2D--><g id="link_Body_Vector2D"><path codeLine="138" d="M671.68,1270.3 C671.67,1294.2 671.76,1318.05 672,1341 C672.1,1350.65 672.1385,1354.6709 672.3085,1364.7209 " fill="transparent" id="Body-to-Vector2D-1" style="stroke:#181818;stroke-width:1;"/><polygon fill="#181818" points="672.41,1370.72,676.2572,1361.6536,672.3254,1365.7207,668.2584,1361.7889,672.41,1370.72" style="stroke:#181818;stroke-width:1;"/><text fill="#000000" font-family="sans-serif" font-size="13" lengthAdjust="spacing" textLength="51.4922" x="673" y="1337.0669">position</text></g><!--link Body to Vector2D--><g id="link_Body_Vector2D"><path codeLine="139" d="M734.4,1270.01 C734.77,1294.03 733.22,1317.98 729,1341 C727.21,1350.76 726.4422,1354.952 723.6122,1364.832 " fill="transparent" id="Body-to-Vector2D-2" style="stroke:#181818;stroke-width:1;"/><polygon fill="#181818" points="721.96,1370.6,728.2836,1363.0494,723.3368,1365.7933,720.5929,1360.8465,721.96,1370.6" style="stroke:#181818;stroke-width:1;"/><text fill="#000000" font-family="sans-serif" font-size="13" lengthAdjust="spacing" textLength="50.8066" x="731" y="1337.0669">velocity</text></g><!--link Body$Builder to Body$ShapeType--><g id="link_Body$Builder_Body$ShapeType"><path codeLine="140" d="M1600.69,1294.18 C1561.84,1349.19 1528.9614,1395.7591 1504.0014,1431.0991 " fill="transparent" id="Body$Builder-to-Body$ShapeType" style="stroke:#181818;stroke-width:1;"/><polygon fill="#181818" points="1500.54,1436,1508.9994,1430.9563,1503.4245,1431.9159,1502.4649,1426.3411,1500.54,1436" style="stroke:#181818;stroke-width:1;"/><text fill="#000000" font-family="sans-serif" font-size="13" lengthAdjust="spacing" textLength="39.2285" x="1576" y="1337.0669">shape</text></g><!--reverse link Main to Body--><g id="link_Main_Body"><path codeLine="141" d="M889.9092,236.2648 C776.6592,273.7948 662.01,315.91 646,339 C564.53,456.47 567.95,615.41 593.54,748.95 " fill="transparent" id="Main-backto-Body" style="stroke:#181818;stroke-width:1;"/><polygon fill="transparent" points="901.3,232.49,894.3463,230.5805,889.9092,236.2648,896.8629,238.1743,901.3,232.49" style="stroke:#181818;stroke-width:1;"/><text fill="#000000" font-family="sans-serif" font-size="13" lengthAdjust="spacing" textLength="42.8403" x="647" y="498.0669">bodies</text><text fill="#000000" font-family="sans-serif" font-size="13" lengthAdjust="spacing" textLength="8.271" x="885.2989" y="231.7428">1</text><text fill="#000000" font-family="sans-serif" font-size="13" lengthAdjust="spacing" textLength="23.0356" x="567.7793" y="738.0669">0..*</text></g><!--link Main to PhysicsEngine--><g id="link_Main_PhysicsEngine"><path codeLine="142" d="M1107,237.69 C1116.2,267.01 1125.7622,297.4557 1137.0022,333.2457 " fill="transparent" id="Main-to-PhysicsEngine" style="stroke:#181818;stroke-width:1;"/><polygon fill="#181818" points="1138.8,338.97,1139.9196,329.185,1137.3019,334.1997,1132.2871,331.582,1138.8,338.97" style="stroke:#181818;stroke-width:1;"/><text fill="#000000" font-family="sans-serif" font-size="13" lengthAdjust="spacing" textLength="93.0439" x="1129" y="305.0669">physicsEngine</text></g><!--reverse link PhysicsEngine to Body--><g id="link_PhysicsEngine_Body"><path codeLine="143" d="M1025.6108,656.5213 C993.9308,688.3213 968.2,714.16 933.92,748.57 " fill="transparent" id="PhysicsEngine-backto-Body" style="stroke:#181818;stroke-width:1;"/><polygon fill="transparent" points="1034.08,648.02,1027.0116,649.4476,1025.6108,656.5213,1032.6792,655.0937,1034.08,648.02" style="stroke:#181818;stroke-width:1;"/><text fill="#000000" font-family="sans-serif" font-size="13" lengthAdjust="spacing" textLength="42.8403" x="992" y="691.0669">bodies</text><text fill="#000000" font-family="sans-serif" font-size="13" lengthAdjust="spacing" textLength="8.271" x="1018.4862" y="667.944">1</text><text fill="#000000" font-family="sans-serif" font-size="13" lengthAdjust="spacing" textLength="23.0356" x="918.2644" y="737.6756">0..*</text></g><!--SRC=[jLZTZ-8s47ykVqMqwiDTQL3PlRRILgfqVDmk4dkiWFOU-h0oiHTyTMnaEm6wkl-zjfCG1noISF2qx7WytpE_SG82XF025dOG5GYyV0KnU7d5591EZy6TzzRwuUqL8mA_UVx2k_TU2GCofxLVyHP1HUynHX2W5lVImRr2UBcIwc30eWL1rWcc5F4fW3WIZcCVYpuZ14DCbqvbM0nfZ3cZ8QBInT4EjPyEnI4MGadzI9S43RSokNwIQoO1Tp7vtE4nPn98pAXBgC3_8PSSYROoucYaupgY4YqHFpvz1dAbpcUIAxiieHiCpS5UQeZaYkaJoC76U_TUdSKCG-l4UnFQo23bwMCU4EIzyzQ0Wz0urCqyytwsgBTEwjqX5LFvGT7K7wzQ-QDACxku2UQV3mx3VaqDIob9q7xRXwz8_psdLpioHO44kbokvaMr3VEaLE0LCteSIeTPRRjzJGNc_Mdns2rSmfKxw2k3OEfWvbdI3DrzMnXRb4sscf35U_w_LOuOlnte6yuHc34udH98Mbub4bEBkxdn9wuoVe6Kb8WlnBAfRNN2QgvzQxLQmMa4-R4NOG8Hhq8Iln6I-AL8ubyRIVmI9F5h8Ob_BfBu9v34hq2I4gpmuwthKhnpKOzm9JjmojWv4MYXIo5fxT9wiVc32_P8PO7QYb7jxcaaDYdn2mfSET0o2Nkt1CDkI-XtHMnhP8LfY3BjZQMjcS2cpflwqrWJFuJeAwhAclTYOH8hi4PvBIcccQRCTslKFIbhptQ6JZrcBkQ1h84oZGJ6YB00ozsLqgd13j4eh1LR2-tQ_T6qFnvQXCV9U3pvyd94dmxxyu-V7nIj0bYV0AO5GDrW2jb6kK6OcV1PJFmLe92W4Lr7qhdxgpMAhQjU1Q5MLqZJ7pgg_uorIHsYUgYJafqR1O-efQ72jUVLJk10WV0Iqq8OVG2_Ha8YE414WhaBTT0M1P5QsDIPiIoIc7G2HeE8SpNAEyFqV8PuZ0FxvfA3M5NE00UoS5aJLDi2lZjcDdbseAh0OKHCjvTQsfOuHBC04EJ4IR1Uazr3eYMB-oA7Y_HdLivmNywmz77INgZoF92eA_RagCWKwD-tTHYTK79e2SHwxkgWadCDSZRmeHwzwAjB60btuMihn2H6d83r5KBoFazKKQjW94Pc1nKM85nOyr4B7gXrnqI1IYJL7A5PexYveZK44hcZkW5OVc9y3iI_edxJxzzPzjXqBPPjzs8983plJNUIerYrQXhIuCode-DZ39EN4XM29SKoWcb6ZXaeuo4W1hiR-IpCW6gCzvMYhfGY4Iqa1u6yiXh9qlt413ET_XNr_SN0ynEWO5by2USOsvlCvvEdbzxahy-3uzTVpZSUVffNSqr73uyrsEQJvqgcqjt2aXFeCHTLxX5OrMcM7KpDOwxu3UcsI4c2U-VuyE0KVpINT5PKNaedfU__wTNQvkuziswV9MfVPVSU209443UxmVVAofv9toidMvfRrLzmBXCkixlUT6yyvllUpI-Tpayt9wGQ5DKWVa9OkLt5PL85pVw_LUFA6NQs_WS0]--></g></svg>