<svg xmlns="http://www.w3.org/2000/svg" xmlns:xlink="http://www.w3.org/1999/xlink" contentStyleType="text/css" data-diagram-type="CLASS" height="1613px" preserveAspectRatio="none" style="width:2529px;height:1613px;background:#FFFFFF;" version="1.1" viewBox="0 0 2529 1613" width="2529px" zoomAndPan="magnify"><defs/><g><!--cluster com--><g id="cluster_com"><path d="M8.5,6 L42.0049,6 A3.75,3.75 0 0 1 44.5049,8.5 L51.5049,28.2969 L2519.5,28.2969 A2.5,2.5 0 0 1 2522,30.7969 L2522,1603.5 A2.5,2.5 0 0 1 2519.5,1606 L8.5,1606 A2.5,2.5 0 0 1 6,1603.5 L6,8.5 A2.5,2.5 0 0 1 8.5,6 " fill="transparent" style="stroke:#000000;stroke-width:1.5;"/><line style="stroke:#000000;stroke-width:1.5;" x1="6" x2="51.5049" y1="28.2969" y2="28.2969"/><text fill="#000000" font-family="sans-serif" font-size="14" font-weight="bold" lengthAdjust="spacing" textLength="32.5049" x="10" y="20.9951">com</text></g><!--cluster ensea_java_final--><g id="cluster_ensea_java_final"><path d="M32.5,49 L162.1592,49 A3.75,3.75 0 0 1 164.6592,51.5 L171.6592,71.2969 L2495.5,71.2969 A2.5,2.5 0 0 1 2498,73.7969 L2498,1579.5 A2.5,2.5 0 0 1 2495.5,1582 L32.5,1582 A2.5,2.5 0 0 1 30,1579.5 L30,51.5 A2.5,2.5 0 0 1 32.5,49 " fill="transparent" style="stroke:#000000;stroke-width:1.5;"/><line style="stroke:#000000;stroke-width:1.5;" x1="30" x2="171.6592" y1="71.2969" y2="71.2969"/><text fill="#000000" font-family="sans-serif" font-size="14" font-weight="bold" lengthAdjust="spacing" textLength="128.6592" x="34" y="63.9951">ensea_java_final</text></g><!--class Body--><g id="elem_Body"><rect codeLine="2" fill="#F1F1F1" height="341.3438" id="Body" rx="2.5" ry="2.5" style="stroke:#181818;stroke-width:0.5;" width="885.8174" x="690" y="921"/><ellipse cx="1110.9878" cy="937" fill="#ADD1B2" rx="11" ry="11" style="stroke:#181818;stroke-width:1;"/><path d="M1113.9565,942.6406 Q1113.3784,942.9375 1112.7378,943.0781 Q1112.0972,943.2344 1111.394,943.2344 Q1108.894,943.2344 1107.5659,941.5938 Q1106.2534,939.9375 1106.2534,936.8125 Q1106.2534,933.6875 1107.5659,932.0313 Q1108.894,930.375 1111.394,930.375 Q1112.0972,930.375 1112.7378,930.5313 Q1113.394,930.6875 1113.9565,930.9844 L1113.9565,933.7031 Q1113.3315,933.125 1112.7378,932.8594 Q1112.144,932.5781 1111.519,932.5781 Q1110.1753,932.5781 1109.4878,933.6563 Q1108.8003,934.7188 1108.8003,936.8125 Q1108.8003,938.9063 1109.4878,939.9844 Q1110.1753,941.0469 1111.519,941.0469 Q1112.144,941.0469 1112.7378,940.7813 Q1113.3315,940.5 1113.9565,939.9219 L1113.9565,942.6406 Z " fill="#000000"/><text fill="#000000" font-family="sans-serif" font-size="14" lengthAdjust="spacing" textLength="35.3418" x="1131.4878" y="941.8467">Body</text><line style="stroke:#181818;stroke-width:0.5;" x1="691" x2="1574.8174" y1="953" y2="953"/><rect fill="transparent" height="6" style="stroke:#C82930;stroke-width:1;" width="6" x="698" y="963.6484"/><text fill="#000000" font-family="sans-serif" font-size="14" lengthAdjust="spacing" textLength="53.9561" x="710" y="969.9951">b : float</text><ellipse cx="701" cy="982.9453" fill="transparent" rx="3" ry="3" style="stroke:#038048;stroke-width:1;"/><text fill="#000000" font-family="sans-serif" font-size="14" lengthAdjust="spacing" textLength="104.9111" x="710" y="986.292">fixed : Boolean</text><rect fill="transparent" height="6" style="stroke:#C82930;stroke-width:1;" width="6" x="698" y="996.2422"/><text fill="#000000" font-family="sans-serif" font-size="14" lengthAdjust="spacing" textLength="53.9561" x="710" y="1002.5889">g : float</text><rect fill="transparent" height="6" style="stroke:#C82930;stroke-width:1;" width="6" x="698" y="1012.5391"/><text fill="#000000" font-family="sans-serif" font-size="14" lengthAdjust="spacing" textLength="142.0371" x="710" y="1018.8857">isColliding : Boolean</text><ellipse cx="701" cy="1031.8359" fill="transparent" rx="3" ry="3" style="stroke:#038048;stroke-width:1;"/><text fill="#000000" font-family="sans-serif" font-size="14" lengthAdjust="spacing" textLength="100.0303" x="710" y="1035.1826">mass : Double</text><rect fill="transparent" height="6" style="stroke:#C82930;stroke-width:1;" width="6" x="698" y="1045.1328"/><text fill="#000000" font-family="sans-serif" font-size="14" lengthAdjust="spacing" textLength="50.8252" x="710" y="1051.4795">r : float</text><ellipse cx="701" cy="1064.4297" fill="transparent" rx="3" ry="3" style="stroke:#038048;stroke-width:1;"/><text fill="#000000" font-family="sans-serif" font-size="14" lengthAdjust="spacing" textLength="90.3711" x="710" y="1067.7764">size : Double</text><rect fill="transparent" height="6" style="stroke:#C82930;stroke-width:1;" width="6" x="698" y="1077.7266"/><text fill="#000000" font-family="sans-serif" font-size="14" lengthAdjust="spacing" textLength="128.1123" x="710" y="1084.0732">textureId : Integer</text><rect fill="transparent" height="6" style="stroke:#C82930;stroke-width:1;" width="6" x="698" y="1094.0234"/><text fill="#000000" font-family="sans-serif" font-size="14" lengthAdjust="spacing" textLength="137.9014" x="710" y="1100.3701">texturePath : String</text><line style="stroke:#181818;stroke-width:0.5;" x1="691" x2="1574.8174" y1="1107.6719" y2="1107.6719"/><ellipse cx="701" cy="1121.3203" fill="#84BE84" rx="3" ry="3" style="stroke:#038048;stroke-width:1;"/><text fill="#000000" font-family="sans-serif" font-size="14" lengthAdjust="spacing" textLength="93.29" x="710" y="1124.667">draw () : void</text><ellipse cx="701" cy="1137.6172" fill="#84BE84" rx="3" ry="3" style="stroke:#038048;stroke-width:1;"/><text fill="#000000" font-family="sans-serif" font-size="14" lengthAdjust="spacing" text-decoration="underline" textLength="678.9316" x="710" y="1140.9639">drawCircle ( paramfloat1 : float , paramfloat2 : float , paramfloat3 : float , paramint4 : int ) : void</text><ellipse cx="701" cy="1153.9141" fill="#84BE84" rx="3" ry="3" style="stroke:#038048;stroke-width:1;"/><text fill="#000000" font-family="sans-serif" font-size="14" lengthAdjust="spacing" text-decoration="underline" textLength="859.8174" x="710" y="1157.2607">drawTexturedCircle ( paramfloat1 : float , paramfloat2 : float , paramfloat3 : float , paramint4 : int , paramint5 : int ) : void</text><ellipse cx="701" cy="1170.2109" fill="#84BE84" rx="3" ry="3" style="stroke:#038048;stroke-width:1;"/><text fill="#000000" font-family="sans-serif" font-size="14" lengthAdjust="spacing" textLength="157.4111" x="710" y="1173.5576">isColliding () : Boolean</text><rect fill="#F24D5C" height="6" style="stroke:#C82930;stroke-width:1;" width="6" x="698" y="1183.5078"/><text fill="#000000" font-family="sans-serif" font-size="14" lengthAdjust="spacing" text-decoration="underline" textLength="291.7715" x="710" y="1189.8545">loadTexture ( paramString1 : String ) : int</text><ellipse cx="701" cy="1202.8047" fill="#84BE84" rx="3" ry="3" style="stroke:#038048;stroke-width:1;"/><text fill="#000000" font-family="sans-serif" font-size="14" lengthAdjust="spacing" textLength="459.6211" x="710" y="1206.1514">move ( paramVector2D1 : com.ensea_java_final.Vector2D ) : void</text><ellipse cx="701" cy="1219.1016" fill="#84BE84" rx="3" ry="3" style="stroke:#038048;stroke-width:1;"/><text fill="#000000" font-family="sans-serif" font-size="14" lengthAdjust="spacing" textLength="330.8047" x="710" y="1222.4482">setColliding ( paramBoolean1 : Boolean ) : void</text><ellipse cx="701" cy="1235.3984" fill="#84BE84" rx="3" ry="3" style="stroke:#038048;stroke-width:1;"/><text fill="#000000" font-family="sans-serif" font-size="14" lengthAdjust="spacing" textLength="544.7695" x="710" y="1238.7451">setColor ( paramfloat1 : float , paramfloat2 : float , paramfloat3 : float ) : void</text><ellipse cx="701" cy="1251.6953" fill="#84BE84" rx="3" ry="3" style="stroke:#038048;stroke-width:1;"/><text fill="#000000" font-family="sans-serif" font-size="14" lengthAdjust="spacing" textLength="294.6221" x="710" y="1255.042">setTexture ( paramString1 : String ) : void</text></g><!--class Body$Builder--><g id="elem_Body$Builder"><rect codeLine="24" fill="#F1F1F1" height="373.9375" id="Body$Builder" rx="2.5" ry="2.5" style="stroke:#181818;stroke-width:0.5;" width="765.6963" x="1716" y="84"/><ellipse cx="2047.7173" cy="100" fill="#ADD1B2" rx="11" ry="11" style="stroke:#181818;stroke-width:1;"/><path d="M2050.686,105.6406 Q2050.1079,105.9375 2049.4673,106.0781 Q2048.8267,106.2344 2048.1235,106.2344 Q2045.6235,106.2344 2044.2954,104.5938 Q2042.9829,102.9375 2042.9829,99.8125 Q2042.9829,96.6875 2044.2954,95.0313 Q2045.6235,93.375 2048.1235,93.375 Q2048.8267,93.375 2049.4673,93.5313 Q2050.1235,93.6875 2050.686,93.9844 L2050.686,96.7031 Q2050.061,96.125 2049.4673,95.8594 Q2048.8735,95.5781 2048.2485,95.5781 Q2046.9048,95.5781 2046.2173,96.6563 Q2045.5298,97.7188 2045.5298,99.8125 Q2045.5298,101.9063 2046.2173,102.9844 Q2046.9048,104.0469 2048.2485,104.0469 Q2048.8735,104.0469 2049.4673,103.7813 Q2050.061,103.5 2050.686,102.9219 L2050.686,105.6406 Z " fill="#000000"/><text fill="#000000" font-family="sans-serif" font-size="14" lengthAdjust="spacing" textLength="93.7617" x="2068.2173" y="104.8467">Body$Builder</text><line style="stroke:#181818;stroke-width:0.5;" x1="1717" x2="2480.6963" y1="116" y2="116"/><rect fill="transparent" height="6" style="stroke:#C82930;stroke-width:1;" width="6" x="1724" y="126.6484"/><text fill="#000000" font-family="sans-serif" font-size="14" lengthAdjust="spacing" textLength="53.9561" x="1736" y="132.9951">b : float</text><rect fill="transparent" height="6" style="stroke:#C82930;stroke-width:1;" width="6" x="1724" y="142.9453"/><text fill="#000000" font-family="sans-serif" font-size="14" lengthAdjust="spacing" textLength="104.9111" x="1736" y="149.292">fixed : Boolean</text><rect fill="transparent" height="6" style="stroke:#C82930;stroke-width:1;" width="6" x="1724" y="159.2422"/><text fill="#000000" font-family="sans-serif" font-size="14" lengthAdjust="spacing" textLength="53.9561" x="1736" y="165.5889">g : float</text><rect fill="transparent" height="6" style="stroke:#C82930;stroke-width:1;" width="6" x="1724" y="175.5391"/><text fill="#000000" font-family="sans-serif" font-size="14" lengthAdjust="spacing" textLength="142.0371" x="1736" y="181.8857">isColliding : Boolean</text><rect fill="transparent" height="6" style="stroke:#C82930;stroke-width:1;" width="6" x="1724" y="191.8359"/><text fill="#000000" font-family="sans-serif" font-size="14" lengthAdjust="spacing" textLength="100.0303" x="1736" y="198.1826">mass : Double</text><rect fill="transparent" height="6" style="stroke:#C82930;stroke-width:1;" width="6" x="1724" y="208.1328"/><text fill="#000000" font-family="sans-serif" font-size="14" lengthAdjust="spacing" textLength="50.8252" x="1736" y="214.4795">r : float</text><rect fill="transparent" height="6" style="stroke:#C82930;stroke-width:1;" width="6" x="1724" y="224.4297"/><text fill="#000000" font-family="sans-serif" font-size="14" lengthAdjust="spacing" textLength="90.3711" x="1736" y="230.7764">size : Double</text><rect fill="transparent" height="6" style="stroke:#C82930;stroke-width:1;" width="6" x="1724" y="240.7266"/><text fill="#000000" font-family="sans-serif" font-size="14" lengthAdjust="spacing" textLength="137.9014" x="1736" y="247.0732">texturePath : String</text><rect fill="transparent" height="6" style="stroke:#C82930;stroke-width:1;" width="6" x="1724" y="257.0234"/><text fill="#000000" font-family="sans-serif" font-size="14" lengthAdjust="spacing" textLength="79.7959" x="1736" y="263.3701">vx : Double</text><rect fill="transparent" height="6" style="stroke:#C82930;stroke-width:1;" width="6" x="1724" y="273.3203"/><text fill="#000000" font-family="sans-serif" font-size="14" lengthAdjust="spacing" textLength="79.7959" x="1736" y="279.667">vy : Double</text><rect fill="transparent" height="6" style="stroke:#C82930;stroke-width:1;" width="6" x="1724" y="289.6172"/><text fill="#000000" font-family="sans-serif" font-size="14" lengthAdjust="spacing" textLength="71.5107" x="1736" y="295.9639">x : Double</text><rect fill="transparent" height="6" style="stroke:#C82930;stroke-width:1;" width="6" x="1724" y="305.9141"/><text fill="#000000" font-family="sans-serif" font-size="14" lengthAdjust="spacing" textLength="71.5107" x="1736" y="312.2607">y : Double</text><line style="stroke:#181818;stroke-width:0.5;" x1="1717" x2="2480.6963" y1="319.5625" y2="319.5625"/><ellipse cx="1727" cy="333.2109" fill="#84BE84" rx="3" ry="3" style="stroke:#038048;stroke-width:1;"/><text fill="#000000" font-family="sans-serif" font-size="14" lengthAdjust="spacing" textLength="253.0254" x="1736" y="336.5576">build () : com.ensea_java_final.Body</text><ellipse cx="1727" cy="349.5078" fill="#84BE84" rx="3" ry="3" style="stroke:#038048;stroke-width:1;"/><text fill="#000000" font-family="sans-serif" font-size="14" lengthAdjust="spacing" textLength="739.6963" x="1736" y="352.8545">color ( paramfloat1 : float , paramfloat2 : float , paramfloat3 : float ) : com.ensea_java_final.Body$Builder</text><ellipse cx="1727" cy="365.8047" fill="#84BE84" rx="3" ry="3" style="stroke:#038048;stroke-width:1;"/><text fill="#000000" font-family="sans-serif" font-size="14" lengthAdjust="spacing" textLength="501.8672" x="1736" y="369.1514">fixed ( paramBoolean1 : Boolean ) : com.ensea_java_final.Body$Builder</text><ellipse cx="1727" cy="382.1016" fill="#84BE84" rx="3" ry="3" style="stroke:#038048;stroke-width:1;"/><text fill="#000000" font-family="sans-serif" font-size="14" lengthAdjust="spacing" textLength="489.9043" x="1736" y="385.4482">mass ( paramDouble1 : Double ) : com.ensea_java_final.Body$Builder</text><ellipse cx="1727" cy="398.3984" fill="#84BE84" rx="3" ry="3" style="stroke:#038048;stroke-width:1;"/><text fill="#000000" font-family="sans-serif" font-size="14" lengthAdjust="spacing" textLength="689.083" x="1736" y="401.7451">position ( paramDouble1 : Double , paramDouble2 : Double ) : com.ensea_java_final.Body$Builder</text><ellipse cx="1727" cy="414.6953" fill="#84BE84" rx="3" ry="3" style="stroke:#038048;stroke-width:1;"/><text fill="#000000" font-family="sans-serif" font-size="14" lengthAdjust="spacing" textLength="480.2451" x="1736" y="418.042">size ( paramDouble1 : Double ) : com.ensea_java_final.Body$Builder</text><ellipse cx="1727" cy="430.9922" fill="#84BE84" rx="3" ry="3" style="stroke:#038048;stroke-width:1;"/><text fill="#000000" font-family="sans-serif" font-size="14" lengthAdjust="spacing" textLength="488.5645" x="1736" y="434.3389">texture ( paramString1 : String ) : com.ensea_java_final.Body$Builder</text><ellipse cx="1727" cy="447.2891" fill="#84BE84" rx="3" ry="3" style="stroke:#038048;stroke-width:1;"/><text fill="#000000" font-family="sans-serif" font-size="14" lengthAdjust="spacing" textLength="688.3447" x="1736" y="450.6357">velocity ( paramDouble1 : Double , paramDouble2 : Double ) : com.ensea_java_final.Body$Builder</text></g><!--class Main--><g id="elem_Main"><rect codeLine="48" fill="#F1F1F1" height="357.6406" id="Main" rx="2.5" ry="2.5" style="stroke:#181818;stroke-width:0.5;" width="1096.3643" x="585" y="92"/><ellipse cx="1112.2217" cy="108" fill="#ADD1B2" rx="11" ry="11" style="stroke:#181818;stroke-width:1;"/><path d="M1115.1904,113.6406 Q1114.6123,113.9375 1113.9717,114.0781 Q1113.3311,114.2344 1112.6279,114.2344 Q1110.1279,114.2344 1108.7998,112.5938 Q1107.4873,110.9375 1107.4873,107.8125 Q1107.4873,104.6875 1108.7998,103.0313 Q1110.1279,101.375 1112.6279,101.375 Q1113.3311,101.375 1113.9717,101.5313 Q1114.6279,101.6875 1115.1904,101.9844 L1115.1904,104.7031 Q1114.5654,104.125 1113.9717,103.8594 Q1113.3779,103.5781 1112.7529,103.5781 Q1111.4092,103.5781 1110.7217,104.6563 Q1110.0342,105.7188 1110.0342,107.8125 Q1110.0342,109.9063 1110.7217,110.9844 Q1111.4092,112.0469 1112.7529,112.0469 Q1113.3779,112.0469 1113.9717,111.7813 Q1114.5654,111.5 1115.1904,110.9219 L1115.1904,113.6406 Z " fill="#000000"/><text fill="#000000" font-family="sans-serif" font-size="14" lengthAdjust="spacing" textLength="33.4209" x="1132.7217" y="112.8467">Main</text><line style="stroke:#181818;stroke-width:0.5;" x1="586" x2="1680.3643" y1="124" y2="124"/><rect fill="transparent" height="6" style="stroke:#C82930;stroke-width:1;" width="6" x="593" y="134.6484"/><text fill="#000000" font-family="sans-serif" font-size="14" lengthAdjust="spacing" text-decoration="underline" textLength="179.7783" x="605" y="140.9951">FONT_TEXTURE_SIZE : int</text><rect fill="transparent" height="6" style="stroke:#C82930;stroke-width:1;" width="6" x="593" y="150.9453"/><text fill="#000000" font-family="sans-serif" font-size="14" lengthAdjust="spacing" text-decoration="underline" textLength="315.6152" x="605" y="157.292">cdata : org.lwjgl.stb.STBTTBakedChar$Buffer</text><rect fill="transparent" height="6" style="stroke:#C82930;stroke-width:1;" width="6" x="593" y="167.2422"/><text fill="#000000" font-family="sans-serif" font-size="14" lengthAdjust="spacing" textLength="331.4951" x="605" y="173.5889">currentState : com.ensea_java_final.MenuState</text><rect fill="transparent" height="6" style="stroke:#C82930;stroke-width:1;" width="6" x="593" y="183.5391"/><text fill="#000000" font-family="sans-serif" font-size="14" lengthAdjust="spacing" text-decoration="underline" textLength="85.1758" x="605" y="189.8857">fontTex : int</text><rect fill="transparent" height="6" style="stroke:#C82930;stroke-width:1;" width="6" x="593" y="199.8359"/><text fill="#000000" font-family="sans-serif" font-size="14" lengthAdjust="spacing" textLength="227.4248" x="605" y="206.1826">scenarioFiles : java.util.ArrayList</text><rect fill="transparent" height="6" style="stroke:#C82930;stroke-width:1;" width="6" x="593" y="216.1328"/><text fill="#000000" font-family="sans-serif" font-size="14" lengthAdjust="spacing" textLength="129.7529" x="605" y="222.4795">selectedIndex : int</text><rect fill="transparent" height="6" style="stroke:#C82930;stroke-width:1;" width="6" x="593" y="232.4297"/><text fill="#000000" font-family="sans-serif" font-size="14" lengthAdjust="spacing" textLength="96.9473" x="605" y="238.7764">window : long</text><line style="stroke:#181818;stroke-width:0.5;" x1="586" x2="1680.3643" y1="246.0781" y2="246.0781"/><rect fill="#F24D5C" height="6" style="stroke:#C82930;stroke-width:1;" width="6" x="593" y="256.7266"/><text fill="#000000" font-family="sans-serif" font-size="14" lengthAdjust="spacing" textLength="356.0977" x="605" y="263.0732">calculateTextWidth ( paramString1 : String ) : float</text><rect fill="#F24D5C" height="6" style="stroke:#C82930;stroke-width:1;" width="6" x="593" y="273.0234"/><text fill="#000000" font-family="sans-serif" font-size="14" lengthAdjust="spacing" textLength="1070.3643" x="605" y="279.3701">drawTextCentered ( paramfloat1 : float , paramfloat2 : float , paramString3 : String , paramfloat4 : float , paramfloat5 : float , paramfloat6 : float ) : void</text><rect fill="#F24D5C" height="6" style="stroke:#C82930;stroke-width:1;" width="6" x="593" y="289.3203"/><text fill="#000000" font-family="sans-serif" font-size="14" lengthAdjust="spacing" textLength="181.0225" x="605" y="295.667">handleMenuInput () : void</text><rect fill="#F24D5C" height="6" style="stroke:#C82930;stroke-width:1;" width="6" x="593" y="305.6172"/><text fill="#000000" font-family="sans-serif" font-size="14" lengthAdjust="spacing" textLength="217.1572" x="605" y="311.9639">handleSimulationInput () : void</text><rect fill="#F24D5C" height="6" style="stroke:#C82930;stroke-width:1;" width="6" x="593" y="321.9141"/><text fill="#000000" font-family="sans-serif" font-size="14" lengthAdjust="spacing" textLength="111.7402" x="605" y="328.2607">initFont () : void</text><rect fill="#F24D5C" height="6" style="stroke:#C82930;stroke-width:1;" width="6" x="593" y="338.2109"/><text fill="#000000" font-family="sans-serif" font-size="14" lengthAdjust="spacing" textLength="309.8252" x="605" y="344.5576">loadScenario ( paramString1 : String ) : void</text><rect fill="#F24D5C" height="6" style="stroke:#C82930;stroke-width:1;" width="6" x="593" y="354.5078"/><text fill="#000000" font-family="sans-serif" font-size="14" lengthAdjust="spacing" textLength="181.1387" x="605" y="360.8545">loadScenarioFiles () : void</text><rect fill="#F24D5C" height="6" style="stroke:#C82930;stroke-width:1;" width="6" x="593" y="370.8047"/><text fill="#000000" font-family="sans-serif" font-size="14" lengthAdjust="spacing" textLength="88.5254" x="605" y="377.1514">loop () : void</text><ellipse cx="596" cy="390.1016" fill="#84BE84" rx="3" ry="3" style="stroke:#038048;stroke-width:1;"/><text fill="#000000" font-family="sans-serif" font-size="14" lengthAdjust="spacing" text-decoration="underline" textLength="345.1807" x="605" y="393.4482">main ( paramString;1 : [Ljava.lang.String; ) : void</text><rect fill="#F24D5C" height="6" style="stroke:#C82930;stroke-width:1;" width="6" x="593" y="403.3984"/><text fill="#000000" font-family="sans-serif" font-size="14" lengthAdjust="spacing" textLength="143.5547" x="605" y="409.7451">renderMenu () : void</text><ellipse cx="596" cy="422.6953" fill="#84BE84" rx="3" ry="3" style="stroke:#038048;stroke-width:1;"/><text fill="#000000" font-family="sans-serif" font-size="14" lengthAdjust="spacing" textLength="82.1201" x="605" y="426.042">run () : void</text><rect fill="#F24D5C" height="6" style="stroke:#C82930;stroke-width:1;" width="6" x="593" y="435.9922"/><text fill="#000000" font-family="sans-serif" font-size="14" lengthAdjust="spacing" textLength="209.2822" x="605" y="442.3389">sleep ( paramint1 : int ) : void</text></g><!--class PhysicsEngine--><g id="elem_PhysicsEngine"><rect codeLine="71" fill="#F1F1F1" height="308.75" id="PhysicsEngine" rx="2.5" ry="2.5" style="stroke:#181818;stroke-width:0.5;" width="958.9824" x="1062.5" y="535"/><ellipse cx="1487.8628" cy="551" fill="#ADD1B2" rx="11" ry="11" style="stroke:#181818;stroke-width:1;"/><path d="M1490.8315,556.6406 Q1490.2534,556.9375 1489.6128,557.0781 Q1488.9722,557.2344 1488.269,557.2344 Q1485.769,557.2344 1484.4409,555.5938 Q1483.1284,553.9375 1483.1284,550.8125 Q1483.1284,547.6875 1484.4409,546.0313 Q1485.769,544.375 1488.269,544.375 Q1488.9722,544.375 1489.6128,544.5313 Q1490.269,544.6875 1490.8315,544.9844 L1490.8315,547.7031 Q1490.2065,547.125 1489.6128,546.8594 Q1489.019,546.5781 1488.394,546.5781 Q1487.0503,546.5781 1486.3628,547.6563 Q1485.6753,548.7188 1485.6753,550.8125 Q1485.6753,552.9063 1486.3628,553.9844 Q1487.0503,555.0469 1488.394,555.0469 Q1489.019,555.0469 1489.6128,554.7813 Q1490.2065,554.5 1490.8315,553.9219 L1490.8315,556.6406 Z " fill="#000000"/><text fill="#000000" font-family="sans-serif" font-size="14" lengthAdjust="spacing" textLength="99.7568" x="1508.3628" y="555.8467">PhysicsEngine</text><line style="stroke:#181818;stroke-width:0.5;" x1="1063.5" x2="2020.4824" y1="567" y2="567"/><rect fill="transparent" height="6" style="stroke:#C82930;stroke-width:1;" width="6" x="1070.5" y="577.6484"/><text fill="#000000" font-family="sans-serif" font-size="14" lengthAdjust="spacing" textLength="169.6406" x="1082.5" y="583.9951">adjustedDeltaT : Double</text><rect fill="transparent" height="6" style="stroke:#C82930;stroke-width:1;" width="6" x="1070.5" y="593.9453"/><text fill="#000000" font-family="sans-serif" font-size="14" lengthAdjust="spacing" textLength="330.3945" x="1082.5" y="600.292">executor : java.util.concurrent.ExecutorService</text><rect fill="transparent" height="6" style="stroke:#C82930;stroke-width:1;" width="6" x="1070.5" y="610.2422"/><text fill="#000000" font-family="sans-serif" font-size="14" lengthAdjust="spacing" textLength="222.8242" x="1082.5" y="616.5889">gravityDict : java.util.Dictionary</text><rect fill="transparent" height="6" style="stroke:#C82930;stroke-width:1;" width="6" x="1070.5" y="626.5391"/><text fill="#000000" font-family="sans-serif" font-size="14" lengthAdjust="spacing" textLength="138.9063" x="1082.5" y="632.8857">gravityType : String</text><rect fill="transparent" height="6" style="stroke:#C82930;stroke-width:1;" width="6" x="1070.5" y="642.8359"/><text fill="#000000" font-family="sans-serif" font-size="14" lengthAdjust="spacing" textLength="182.1094" x="1082.5" y="649.1826">simulationDeltaT : Double</text><ellipse cx="1073.5" cy="662.1328" fill="transparent" rx="3" ry="3" style="stroke:#038048;stroke-width:1;"/><text fill="#000000" font-family="sans-serif" font-size="14" lengthAdjust="spacing" textLength="132.5215" x="1082.5" y="665.4795">timeScale : Double</text><line style="stroke:#181818;stroke-width:0.5;" x1="1063.5" x2="2020.4824" y1="672.7813" y2="672.7813"/><ellipse cx="1073.5" cy="686.4297" fill="#84BE84" rx="3" ry="3" style="stroke:#038048;stroke-width:1;"/><text fill="#000000" font-family="sans-serif" font-size="14" lengthAdjust="spacing" textLength="513.8301" x="1082.5" y="689.7764">applyGravity ( paramboolean1 : boolean , paramdouble2 : double ) : void</text><ellipse cx="1073.5" cy="702.7266" fill="#84BE84" rx="3" ry="3" style="stroke:#038048;stroke-width:1;"/><text fill="#000000" font-family="sans-serif" font-size="14" lengthAdjust="spacing" textLength="932.9824" x="1082.5" y="706.0732">bodyGravity ( paramBody1 : com.ensea_java_final.Body , paramBody2 : com.ensea_java_final.Body , paramDouble3 : Double ) : void</text><ellipse cx="1073.5" cy="719.0234" fill="#84BE84" rx="3" ry="3" style="stroke:#038048;stroke-width:1;"/><text fill="#000000" font-family="sans-serif" font-size="14" lengthAdjust="spacing" textLength="666.2236" x="1082.5" y="722.3701">directionalGravity ( paramBody1 : com.ensea_java_final.Body , paramDouble2 : Double ) : void</text><rect fill="#F24D5C" height="6" style="stroke:#C82930;stroke-width:1;" width="6" x="1070.5" y="732.3203"/><text fill="#000000" font-family="sans-serif" font-size="14" lengthAdjust="spacing" textLength="384.3984" x="1082.5" y="738.667">invokeAll ( paramArrayList1 : java.util.ArrayList ) : void</text><ellipse cx="1073.5" cy="751.6172" fill="#84BE84" rx="3" ry="3" style="stroke:#038048;stroke-width:1;"/><text fill="#000000" font-family="sans-serif" font-size="14" lengthAdjust="spacing" textLength="144.5732" x="1082.5" y="754.9639">moveBodies () : void</text><rect fill="#F24D5C" height="6" style="stroke:#C82930;stroke-width:1;" width="6" x="1070.5" y="764.9141"/><text fill="#000000" font-family="sans-serif" font-size="14" lengthAdjust="spacing" textLength="776.3438" x="1082.5" y="771.2607">resolveCollision ( paramBody1 : com.ensea_java_final.Body , paramBody2 : com.ensea_java_final.Body ) : void</text><ellipse cx="1073.5" cy="784.2109" fill="#84BE84" rx="3" ry="3" style="stroke:#038048;stroke-width:1;"/><text fill="#000000" font-family="sans-serif" font-size="14" lengthAdjust="spacing" textLength="175.5605" x="1082.5" y="787.5576">resolveCollisions () : void</text><rect fill="#F24D5C" height="6" style="stroke:#C82930;stroke-width:1;" width="6" x="1070.5" y="797.5078"/><text fill="#000000" font-family="sans-serif" font-size="14" lengthAdjust="spacing" textLength="463.5996" x="1082.5" y="803.8545">runTasks ( paramConsumer1 : java.util.function.Consumer ) : void</text><ellipse cx="1073.5" cy="816.8047" fill="#84BE84" rx="3" ry="3" style="stroke:#038048;stroke-width:1;"/><text fill="#000000" font-family="sans-serif" font-size="14" lengthAdjust="spacing" textLength="189.0479" x="1082.5" y="820.1514">shutdownExecutor () : void</text><ellipse cx="1073.5" cy="833.1016" fill="#84BE84" rx="3" ry="3" style="stroke:#038048;stroke-width:1;"/><text fill="#000000" font-family="sans-serif" font-size="14" lengthAdjust="spacing" textLength="107.9463" x="1082.5" y="836.4482">update () : void</text></g><!--class Vector2D--><g id="elem_Vector2D"><rect codeLine="91" fill="#F1F1F1" height="227.2656" id="Vector2D" rx="2.5" ry="2.5" style="stroke:#181818;stroke-width:0.5;" width="694.6094" x="785.5" y="1339"/><ellipse cx="1095.8618" cy="1355" fill="#ADD1B2" rx="11" ry="11" style="stroke:#181818;stroke-width:1;"/><path d="M1098.8306,1360.6406 Q1098.2524,1360.9375 1097.6118,1361.0781 Q1096.9712,1361.2344 1096.2681,1361.2344 Q1093.7681,1361.2344 1092.4399,1359.5938 Q1091.1274,1357.9375 1091.1274,1354.8125 Q1091.1274,1351.6875 1092.4399,1350.0313 Q1093.7681,1348.375 1096.2681,1348.375 Q1096.9712,1348.375 1097.6118,1348.5313 Q1098.2681,1348.6875 1098.8306,1348.9844 L1098.8306,1351.7031 Q1098.2056,1351.125 1097.6118,1350.8594 Q1097.0181,1350.5781 1096.3931,1350.5781 Q1095.0493,1350.5781 1094.3618,1351.6563 Q1093.6743,1352.7188 1093.6743,1354.8125 Q1093.6743,1356.9063 1094.3618,1357.9844 Q1095.0493,1359.0469 1096.3931,1359.0469 Q1097.0181,1359.0469 1097.6118,1358.7813 Q1098.2056,1358.5 1098.8306,1357.9219 L1098.8306,1360.6406 Z " fill="#000000"/><text fill="#000000" font-family="sans-serif" font-size="14" lengthAdjust="spacing" textLength="65.3857" x="1116.3618" y="1359.8467">Vector2D</text><line style="stroke:#181818;stroke-width:0.5;" x1="786.5" x2="1479.1094" y1="1371" y2="1371"/><ellipse cx="796.5" cy="1384.6484" fill="transparent" rx="3" ry="3" style="stroke:#038048;stroke-width:1;"/><text fill="#000000" font-family="sans-serif" font-size="14" lengthAdjust="spacing" textLength="71.5107" x="805.5" y="1387.9951">x : Double</text><ellipse cx="796.5" cy="1400.9453" fill="transparent" rx="3" ry="3" style="stroke:#038048;stroke-width:1;"/><text fill="#000000" font-family="sans-serif" font-size="14" lengthAdjust="spacing" textLength="71.5107" x="805.5" y="1404.292">y : Double</text><line style="stroke:#181818;stroke-width:0.5;" x1="786.5" x2="1479.1094" y1="1411.5938" y2="1411.5938"/><ellipse cx="796.5" cy="1425.2422" fill="#84BE84" rx="3" ry="3" style="stroke:#038048;stroke-width:1;"/><text fill="#000000" font-family="sans-serif" font-size="14" lengthAdjust="spacing" textLength="636.8975" x="805.5" y="1428.5889">add ( paramVector2D1 : com.ensea_java_final.Vector2D ) : com.ensea_java_final.Vector2D</text><ellipse cx="796.5" cy="1441.5391" fill="#84BE84" rx="3" ry="3" style="stroke:#038048;stroke-width:1;"/><text fill="#000000" font-family="sans-serif" font-size="14" lengthAdjust="spacing" textLength="499.8232" x="805.5" y="1444.8857">distance ( paramVector2D1 : com.ensea_java_final.Vector2D ) : Double</text><ellipse cx="796.5" cy="1457.8359" fill="#84BE84" rx="3" ry="3" style="stroke:#038048;stroke-width:1;"/><text fill="#000000" font-family="sans-serif" font-size="14" lengthAdjust="spacing" textLength="463.4424" x="805.5" y="1461.1826">dot ( paramVector2D1 : com.ensea_java_final.Vector2D ) : Double</text><ellipse cx="796.5" cy="1474.1328" fill="#84BE84" rx="3" ry="3" style="stroke:#038048;stroke-width:1;"/><text fill="#000000" font-family="sans-serif" font-size="14" lengthAdjust="spacing" textLength="154.3281" x="805.5" y="1477.4795">magnitude () : Double</text><ellipse cx="796.5" cy="1490.4297" fill="#84BE84" rx="3" ry="3" style="stroke:#038048;stroke-width:1;"/><text fill="#000000" font-family="sans-serif" font-size="14" lengthAdjust="spacing" textLength="317.7959" x="805.5" y="1493.7764">normalize () : com.ensea_java_final.Vector2D</text><ellipse cx="796.5" cy="1506.7266" fill="#84BE84" rx="3" ry="3" style="stroke:#038048;stroke-width:1;"/><text fill="#000000" font-family="sans-serif" font-size="14" lengthAdjust="spacing" textLength="460.7969" x="805.5" y="1510.0732">scale ( paramDouble1 : Double ) : com.ensea_java_final.Vector2D</text><ellipse cx="796.5" cy="1523.0234" fill="#84BE84" rx="3" ry="3" style="stroke:#038048;stroke-width:1;"/><text fill="#000000" font-family="sans-serif" font-size="14" lengthAdjust="spacing" textLength="646.6182" x="805.5" y="1526.3701">scale ( paramVector2D1 : com.ensea_java_final.Vector2D ) : com.ensea_java_final.Vector2D</text><ellipse cx="796.5" cy="1539.3203" fill="#84BE84" rx="3" ry="3" style="stroke:#038048;stroke-width:1;"/><text fill="#000000" font-family="sans-serif" font-size="14" lengthAdjust="spacing" textLength="668.6094" x="805.5" y="1542.667">subtract ( paramVector2D1 : com.ensea_java_final.Vector2D ) : com.ensea_java_final.Vector2D</text><ellipse cx="796.5" cy="1555.6172" fill="#84BE84" rx="3" ry="3" style="stroke:#038048;stroke-width:1;"/><text fill="#000000" font-family="sans-serif" font-size="14" lengthAdjust="spacing" textLength="126.6084" x="805.5" y="1558.9639">toString () : String</text></g><!--class WindowManager--><g id="elem_WindowManager"><rect codeLine="106" fill="#F1F1F1" height="194.6719" id="WindowManager" rx="2.5" ry="2.5" style="stroke:#181818;stroke-width:0.5;" width="502.8203" x="46.5" y="173.5"/><ellipse cx="235.2231" cy="189.5" fill="#ADD1B2" rx="11" ry="11" style="stroke:#181818;stroke-width:1;"/><path d="M238.1919,195.1406 Q237.6138,195.4375 236.9731,195.5781 Q236.3325,195.7344 235.6294,195.7344 Q233.1294,195.7344 231.8013,194.0938 Q230.4888,192.4375 230.4888,189.3125 Q230.4888,186.1875 231.8013,184.5313 Q233.1294,182.875 235.6294,182.875 Q236.3325,182.875 236.9731,183.0313 Q237.6294,183.1875 238.1919,183.4844 L238.1919,186.2031 Q237.5669,185.625 236.9731,185.3594 Q236.3794,185.0781 235.7544,185.0781 Q234.4106,185.0781 233.7231,186.1563 Q233.0356,187.2188 233.0356,189.3125 Q233.0356,191.4063 233.7231,192.4844 Q234.4106,193.5469 235.7544,193.5469 Q236.3794,193.5469 236.9731,193.2813 Q237.5669,193 238.1919,192.4219 L238.1919,195.1406 Z " fill="#000000"/><text fill="#000000" font-family="sans-serif" font-size="14" lengthAdjust="spacing" textLength="116.874" x="255.7231" y="194.3467">WindowManager</text><line style="stroke:#181818;stroke-width:0.5;" x1="47.5" x2="548.3203" y1="205.5" y2="205.5"/><ellipse cx="57.5" cy="219.1484" fill="transparent" rx="3" ry="3" style="stroke:#038048;stroke-width:1;"/><text fill="#000000" font-family="sans-serif" font-size="14" lengthAdjust="spacing" text-decoration="underline" textLength="165.0195" x="66.5" y="222.4951">BOTTOM_BOUND : float</text><ellipse cx="57.5" cy="235.4453" fill="transparent" rx="3" ry="3" style="stroke:#038048;stroke-width:1;"/><text fill="#000000" font-family="sans-serif" font-size="14" lengthAdjust="spacing" text-decoration="underline" textLength="137.4434" x="66.5" y="238.792">LEFT_BOUND : float</text><ellipse cx="57.5" cy="251.7422" fill="transparent" rx="3" ry="3" style="stroke:#038048;stroke-width:1;"/><text fill="#000000" font-family="sans-serif" font-size="14" lengthAdjust="spacing" text-decoration="underline" textLength="147.9775" x="66.5" y="255.0889">RIGHT_BOUND : float</text><ellipse cx="57.5" cy="268.0391" fill="transparent" rx="3" ry="3" style="stroke:#038048;stroke-width:1;"/><text fill="#000000" font-family="sans-serif" font-size="14" lengthAdjust="spacing" text-decoration="underline" textLength="132.207" x="66.5" y="271.3857">TOP_BOUND : float</text><rect fill="transparent" height="6" style="stroke:#C82930;stroke-width:1;" width="6" x="54.5" y="281.3359"/><text fill="#000000" font-family="sans-serif" font-size="14" lengthAdjust="spacing" text-decoration="underline" textLength="96.9473" x="66.5" y="287.6826">window : long</text><line style="stroke:#181818;stroke-width:0.5;" x1="47.5" x2="548.3203" y1="294.9844" y2="294.9844"/><ellipse cx="57.5" cy="308.6328" fill="#84BE84" rx="3" ry="3" style="stroke:#038048;stroke-width:1;"/><text fill="#000000" font-family="sans-serif" font-size="14" lengthAdjust="spacing" text-decoration="underline" textLength="114.0303" x="66.5" y="311.9795">cleanup () : void</text><ellipse cx="57.5" cy="324.9297" fill="#84BE84" rx="3" ry="3" style="stroke:#038048;stroke-width:1;"/><text fill="#000000" font-family="sans-serif" font-size="14" lengthAdjust="spacing" text-decoration="underline" textLength="476.8203" x="66.5" y="328.2764">init ( paramint1 : int , paramint2 : int , paramString3 : String ) : void</text><rect fill="#F24D5C" height="6" style="stroke:#C82930;stroke-width:1;" width="6" x="54.5" y="338.2266"/><text fill="#000000" font-family="sans-serif" font-size="14" lengthAdjust="spacing" text-decoration="underline" textLength="393.5449" x="66.5" y="344.5732">resizeViewport ( paramint1 : int , paramint2 : int ) : void</text><ellipse cx="57.5" cy="357.5234" fill="#84BE84" rx="3" ry="3" style="stroke:#038048;stroke-width:1;"/><text fill="#000000" font-family="sans-serif" font-size="14" lengthAdjust="spacing" text-decoration="underline" textLength="107.9463" x="66.5" y="360.8701">update () : void</text></g><!--link Body to Vector2D--><g id="link_Body_Vector2D"><path codeLine="121" d="M1018.48,1262.09 C1014.42,1271.98 1010.88,1281.98 1008,1292 C1003.34,1308.23 1002.7331,1318.3509 1008.2231,1333.2309 " fill="transparent" id="Body-to-Vector2D" style="stroke:#181818;stroke-width:1;"/><polygon fill="#181818" points="1010.3,1338.86,1010.9374,1329.0318,1008.5693,1334.1691,1003.432,1331.8009,1010.3,1338.86" style="stroke:#181818;stroke-width:1;"/><text fill="#000000" font-family="sans-serif" font-size="13" lengthAdjust="spacing" textLength="80.082" x="1009" y="1305.0669">acceleration</text></g><!--link Body to Vector2D--><g id="link_Body_Vector2D"><path codeLine="122" d="M1129.86,1262.1 C1129.81,1277.95 1129.84,1293.78 1130,1309 C1130.1,1318.65 1130.1385,1322.6709 1130.3085,1332.7209 " fill="transparent" id="Body-to-Vector2D-1" style="stroke:#181818;stroke-width:1;"/><polygon fill="#181818" points="1130.41,1338.72,1134.2572,1329.6536,1130.3254,1333.7207,1126.2584,1329.7889,1130.41,1338.72" style="stroke:#181818;stroke-width:1;"/><text fill="#000000" font-family="sans-serif" font-size="13" lengthAdjust="spacing" textLength="51.4922" x="1131" y="1305.0669">position</text></g><!--link Body to Vector2D--><g id="link_Body_Vector2D"><path codeLine="123" d="M1189.42,1262.24 C1190.39,1277.99 1189.79,1293.76 1187,1309 C1185.21,1318.76 1184.4422,1322.952 1181.6122,1332.832 " fill="transparent" id="Body-to-Vector2D-2" style="stroke:#181818;stroke-width:1;"/><polygon fill="#181818" points="1179.96,1338.6,1186.2836,1331.0494,1181.3368,1333.7933,1178.5929,1328.8465,1179.96,1338.6" style="stroke:#181818;stroke-width:1;"/><text fill="#000000" font-family="sans-serif" font-size="13" lengthAdjust="spacing" textLength="50.8066" x="1189" y="1305.0669">velocity</text></g><!--reverse link Main to Body--><g id="link_Main_Body"><path codeLine="124" d="M1025.1341,461.3373 C1013.2241,488.9273 1007.71,506.66 1001,535 C969.35,668.64 967.58,710.8 1001,844 C1007.47,869.78 1017.21,895.81 1028.52,920.8 " fill="transparent" id="Main-backto-Body" style="stroke:#181818;stroke-width:1;"/><polygon fill="transparent" points="1029.89,450.32,1023.8396,454.2433,1025.1341,461.3373,1031.1845,457.414,1029.89,450.32" style="stroke:#181818;stroke-width:1;"/><text fill="#000000" font-family="sans-serif" font-size="13" lengthAdjust="spacing" textLength="42.8403" x="1002" y="694.0669">bodies</text><text fill="#000000" font-family="sans-serif" font-size="13" lengthAdjust="spacing" textLength="8.271" x="1017.7042" y="469.6942">1</text><text fill="#000000" font-family="sans-serif" font-size="13" lengthAdjust="spacing" textLength="23.0356" x="1000.2696" y="909.7874">0..*</text></g><!--link Main to PhysicsEngine--><g id="link_Main_PhysicsEngine"><path codeLine="125" d="M1307.94,450.14 C1335.6,478.31 1359.7956,502.9595 1386.8556,530.5095 " fill="transparent" id="Main-to-PhysicsEngine" style="stroke:#181818;stroke-width:1;"/><polygon fill="#181818" points="1391.06,534.79,1387.6071,525.5663,1387.5563,531.2229,1381.8997,531.1721,1391.06,534.79" style="stroke:#181818;stroke-width:1;"/><text fill="#000000" font-family="sans-serif" font-size="13" lengthAdjust="spacing" textLength="93.0439" x="1350" y="501.0669">physicsEngine</text></g><!--reverse link PhysicsEngine to Body--><g id="link_PhysicsEngine_Body"><path codeLine="126" d="M1376.46,852.3995 C1350.78,877.5095 1332.62,895.27 1306.56,920.76 " fill="transparent" id="PhysicsEngine-backto-Body" style="stroke:#181818;stroke-width:1;"/><polygon fill="transparent" points="1385.04,844.01,1377.9535,845.3448,1376.46,852.3995,1383.5465,851.0648,1385.04,844.01" style="stroke:#181818;stroke-width:1;"/><text fill="#000000" font-family="sans-serif" font-size="13" lengthAdjust="spacing" textLength="42.8403" x="1350" y="887.0669">bodies</text><text fill="#000000" font-family="sans-serif" font-size="13" lengthAdjust="spacing" textLength="8.271" x="1369.2505" y="863.9335">1</text><text fill="#000000" font-family="sans-serif" font-size="13" lengthAdjust="spacing" textLength="23.0356" x="1290.9083" y="909.7456">0..*</text></g><!--SRC=[jLZTJoCt47zk_eeLwWDjRbSDtFM1IfKk4AwHu42NlRkgVK2EFKaCNZkolO4KtVzUUxytyUuc49w0yNZcj_Fncp6O8QKyBA80k09qTuzMw6v6EMB1K92rzzpxwNb6WP4VdZ_rphmP4qYNilwCFW4nyg4G312lQC-tjNsgpWLZb50-TztfHnRCcNSXuYc3oZtfyApeV-3IrV2aOmbZYshCDSn1Rf_U8hqmvnCj3HHp785U26kLIFJe7VzYpbQ2aig9zwmqqXHdEkTKOWRUiRT44aK9ja4EqdjNaPuufQURKihrUoCpFxnkvs7w4UGDGPII3ysm-jLy9a4hKxeDtJUkI0OznvmcO52a8l5Yl5MTH69Lw7y3h8KykR0td4MRApZXAj0LlAd53F6W1DzoLSW31Bl1_2wHIQxzwFLwkBrjVnx6b16GNUth7xHz_JtQr-zetyq6pOzNJwvBgxLBwbIjQHRndzfufINS6DIgFZvWBNHciUeuJLXxxUvbCCbPPY-Dow28qFxMba9HJGLljFYkAZzvXQUaVWw6M-_GV7iPN04JcEhr6mMYWmEk4UNLtYyv-FBcStWNZluEltuPtKt6_umAljrInGHfP8w5d0ViyNxE0gMdmIGSXk4GFPZfiq3I09hDQWCMnr82rnDZ1Pe-vHfud2YutCu4jrouYSjN63YIL5nI1fPbhBqWrfG57wL4wokgQjh0p2G0CkR4OUkHSY8UZPY9slZtCM8uPWQPPUFlb1WIQYk9dDIA-_bqFZSX05bswZuKaTe_BJrLjTyxRNnmIdzl6pd-0d72mAPYp9UnTYuzcTA4HZOefgzRL2cd-jBapdrgP_yaos3tY6kucAQ-mRvOTkrjaUsAcky_hFD_hv9IOeZFWqpiH6BAshIU3PZJKL_6t8rDCO1bxjWKuc1pe-hevjl5Mb6iHdnEETH6EYBtiJ9LVW5Cez0rxk09S6msebh3OC6pDWr6sVa4v8hYwisvH2j3O1SKwzfbAp2LWEHwMpbSBy4rjLLHG8r8-vf6C37z1yu1ZPPBjlwKUib3EIt7N_PhNlwaO5LIikfclgQ6K3SiMeuTj15mxi3-VhABOlebftL-tqH2g8GqgEobW9npPBj5L-81FZAMco-OS-0cL2TQkuyRrxIf5IKemLQGh8ggiWiSCBZEzjjmsuGkvY5I3yNESsuqumXaFGApc2S92V9ZzzQ-YBMP8pnl8ZSln4jYP-7nhkrUF64gdTvtxR9zzowB27dPSwbLerwlXbCvVk6hR1in4VfGfY8qDtCe9bcyjnMua15YoVAurpUhX9hsNZWxJRrHYbGyrH9X_SPkjCX6TnBCZFSxwljxidnT8uxczHTgEQc7Ds5uStqtlFdw-MBxxLZgNOqkmswjB-DFV-sW5jxSTYerReuLEzXEehXp6x7xacCfAF_nSbANRAs5hUOj2viY_qRXSIdaRexQyJffp2IwaQHz_q-lezREF8InsTHbiXkyrbR- -7ojdVpjrcj-MnqDZZpX-zxHRq7mwv7NCghiRc9dPOknPb3rpSzyOVNltWvNNe2pzpy0]--></g></svg>