<svg xmlns="http://www.w3.org/2000/svg" xmlns:xlink="http://www.w3.org/1999/xlink" contentStyleType="text/css" data-diagram-type="CLASS" height="1760px" preserveAspectRatio="none" style="width:1804px;height:1760px;background:#FFFFFF;" version="1.1" viewBox="0 0 1804 1760" width="1804px" zoomAndPan="magnify"><defs/><g><!--cluster com--><g id="cluster_com"><path d="M8.5,6 L42.0049,6 A3.75,3.75 0 0 1 44.5049,8.5 L51.5049,28.2969 L1794.5,28.2969 A2.5,2.5 0 0 1 1797,30.7969 L1797,1750.5 A2.5,2.5 0 0 1 1794.5,1753 L8.5,1753 A2.5,2.5 0 0 1 6,1750.5 L6,8.5 A2.5,2.5 0 0 1 8.5,6 " fill="transparent" style="stroke:#000000;stroke-width:1.5;"/><line style="stroke:#000000;stroke-width:1.5;" x1="6" x2="51.5049" y1="28.2969" y2="28.2969"/><text fill="#000000" font-family="sans-serif" font-size="14" font-weight="bold" lengthAdjust="spacing" textLength="32.5049" x="10" y="20.9951">com</text></g><!--cluster ensea_java_final--><g id="cluster_ensea_java_final"><path d="M32.5,49 L162.1592,49 A3.75,3.75 0 0 1 164.6592,51.5 L171.6592,71.2969 L1770.5,71.2969 A2.5,2.5 0 0 1 1773,73.7969 L1773,1726.5 A2.5,2.5 0 0 1 1770.5,1729 L32.5,1729 A2.5,2.5 0 0 1 30,1726.5 L30,51.5 A2.5,2.5 0 0 1 32.5,49 " fill="transparent" style="stroke:#000000;stroke-width:1.5;"/><line style="stroke:#000000;stroke-width:1.5;" x1="30" x2="171.6592" y1="71.2969" y2="71.2969"/><text fill="#000000" font-family="sans-serif" font-size="14" font-weight="bold" lengthAdjust="spacing" textLength="128.6592" x="34" y="63.9951">ensea_java_final</text></g><!--class Body--><g id="elem_Body"><rect codeLine="2" fill="#F1F1F1" height="422.8281" id="Body" rx="2.5" ry="2.5" style="stroke:#181818;stroke-width:0.5;" width="885.8174" x="161" y="986"/><ellipse cx="581.9878" cy="1002" fill="#ADD1B2" rx="11" ry="11" style="stroke:#181818;stroke-width:1;"/><path d="M584.9565,1007.6406 Q584.3784,1007.9375 583.7378,1008.0781 Q583.0972,1008.2344 582.394,1008.2344 Q579.894,1008.2344 578.5659,1006.5938 Q577.2534,1004.9375 577.2534,1001.8125 Q577.2534,998.6875 578.5659,997.0313 Q579.894,995.375 582.394,995.375 Q583.0972,995.375 583.7378,995.5313 Q584.394,995.6875 584.9565,995.9844 L584.9565,998.7031 Q584.3315,998.125 583.7378,997.8594 Q583.144,997.5781 582.519,997.5781 Q581.1753,997.5781 580.4878,998.6563 Q579.8003,999.7188 579.8003,1001.8125 Q579.8003,1003.9063 580.4878,1004.9844 Q581.1753,1006.0469 582.519,1006.0469 Q583.144,1006.0469 583.7378,1005.7813 Q584.3315,1005.5 584.9565,1004.9219 L584.9565,1007.6406 Z " fill="#000000"/><text fill="#000000" font-family="sans-serif" font-size="14" lengthAdjust="spacing" textLength="35.3418" x="602.4878" y="1006.8467">Body</text><line style="stroke:#181818;stroke-width:0.5;" x1="162" x2="1045.8174" y1="1018" y2="1018"/><rect fill="transparent" height="6" style="stroke:#C82930;stroke-width:1;" width="6" x="169" y="1028.6484"/><text fill="#000000" font-family="sans-serif" font-size="14" lengthAdjust="spacing" textLength="108.999" x="181" y="1034.9951">alphaMask : [[Z</text><rect fill="transparent" height="6" style="stroke:#C82930;stroke-width:1;" width="6" x="169" y="1044.9453"/><text fill="#000000" font-family="sans-serif" font-size="14" lengthAdjust="spacing" textLength="53.9561" x="181" y="1051.292">b : float</text><ellipse cx="172" cy="1064.2422" fill="transparent" rx="3" ry="3" style="stroke:#038048;stroke-width:1;"/><text fill="#000000" font-family="sans-serif" font-size="14" lengthAdjust="spacing" textLength="104.9111" x="181" y="1067.5889">fixed : Boolean</text><rect fill="transparent" height="6" style="stroke:#C82930;stroke-width:1;" width="6" x="169" y="1077.5391"/><text fill="#000000" font-family="sans-serif" font-size="14" lengthAdjust="spacing" textLength="53.9561" x="181" y="1083.8857">g : float</text><rect fill="transparent" height="6" style="stroke:#C82930;stroke-width:1;" width="6" x="169" y="1093.8359"/><text fill="#000000" font-family="sans-serif" font-size="14" lengthAdjust="spacing" textLength="142.0371" x="181" y="1100.1826">isColliding : Boolean</text><ellipse cx="172" cy="1113.1328" fill="transparent" rx="3" ry="3" style="stroke:#038048;stroke-width:1;"/><text fill="#000000" font-family="sans-serif" font-size="14" lengthAdjust="spacing" textLength="100.0303" x="181" y="1116.4795">mass : Double</text><rect fill="transparent" height="6" style="stroke:#C82930;stroke-width:1;" width="6" x="169" y="1126.4297"/><text fill="#000000" font-family="sans-serif" font-size="14" lengthAdjust="spacing" textLength="50.8252" x="181" y="1132.7764">r : float</text><ellipse cx="172" cy="1145.7266" fill="transparent" rx="3" ry="3" style="stroke:#038048;stroke-width:1;"/><text fill="#000000" font-family="sans-serif" font-size="14" lengthAdjust="spacing" textLength="90.3711" x="181" y="1149.0732">size : Double</text><rect fill="transparent" height="6" style="stroke:#C82930;stroke-width:1;" width="6" x="169" y="1159.0234"/><text fill="#000000" font-family="sans-serif" font-size="14" lengthAdjust="spacing" textLength="100.5361" x="181" y="1165.3701">texHeight : int</text><rect fill="transparent" height="6" style="stroke:#C82930;stroke-width:1;" width="6" x="169" y="1175.3203"/><text fill="#000000" font-family="sans-serif" font-size="14" lengthAdjust="spacing" textLength="95.2383" x="181" y="1181.667">texWidth : int</text><rect fill="transparent" height="6" style="stroke:#C82930;stroke-width:1;" width="6" x="169" y="1191.6172"/><text fill="#000000" font-family="sans-serif" font-size="14" lengthAdjust="spacing" textLength="128.1123" x="181" y="1197.9639">textureId : Integer</text><rect fill="transparent" height="6" style="stroke:#C82930;stroke-width:1;" width="6" x="169" y="1207.9141"/><text fill="#000000" font-family="sans-serif" font-size="14" lengthAdjust="spacing" textLength="137.9014" x="181" y="1214.2607">texturePath : String</text><line style="stroke:#181818;stroke-width:0.5;" x1="162" x2="1045.8174" y1="1221.5625" y2="1221.5625"/><ellipse cx="172" cy="1235.2109" fill="#84BE84" rx="3" ry="3" style="stroke:#038048;stroke-width:1;"/><text fill="#000000" font-family="sans-serif" font-size="14" lengthAdjust="spacing" textLength="93.29" x="181" y="1238.5576">draw () : void</text><ellipse cx="172" cy="1251.5078" fill="#84BE84" rx="3" ry="3" style="stroke:#038048;stroke-width:1;"/><text fill="#000000" font-family="sans-serif" font-size="14" lengthAdjust="spacing" text-decoration="underline" textLength="678.9316" x="181" y="1254.8545">drawCircle ( paramfloat1 : float , paramfloat2 : float , paramfloat3 : float , paramint4 : int ) : void</text><ellipse cx="172" cy="1267.8047" fill="#84BE84" rx="3" ry="3" style="stroke:#038048;stroke-width:1;"/><text fill="#000000" font-family="sans-serif" font-size="14" lengthAdjust="spacing" text-decoration="underline" textLength="859.8174" x="181" y="1271.1514">drawTexturedCircle ( paramfloat1 : float , paramfloat2 : float , paramfloat3 : float , paramint4 : int , paramint5 : int ) : void</text><ellipse cx="172" cy="1284.1016" fill="#84BE84" rx="3" ry="3" style="stroke:#038048;stroke-width:1;"/><text fill="#000000" font-family="sans-serif" font-size="14" lengthAdjust="spacing" textLength="185.5752" x="181" y="1287.4482">hasAlphaMask () : boolean</text><ellipse cx="172" cy="1300.3984" fill="#84BE84" rx="3" ry="3" style="stroke:#038048;stroke-width:1;"/><text fill="#000000" font-family="sans-serif" font-size="14" lengthAdjust="spacing" textLength="157.4111" x="181" y="1303.7451">isColliding () : Boolean</text><rect fill="#F24D5C" height="6" style="stroke:#C82930;stroke-width:1;" width="6" x="169" y="1313.6953"/><text fill="#000000" font-family="sans-serif" font-size="14" lengthAdjust="spacing" textLength="324.8301" x="181" y="1320.042">loadAlphaMask ( paramString1 : String ) : void</text><rect fill="#F24D5C" height="6" style="stroke:#C82930;stroke-width:1;" width="6" x="169" y="1329.9922"/><text fill="#000000" font-family="sans-serif" font-size="14" lengthAdjust="spacing" text-decoration="underline" textLength="291.7715" x="181" y="1336.3389">loadTexture ( paramString1 : String ) : int</text><ellipse cx="172" cy="1349.2891" fill="#84BE84" rx="3" ry="3" style="stroke:#038048;stroke-width:1;"/><text fill="#000000" font-family="sans-serif" font-size="14" lengthAdjust="spacing" textLength="459.6211" x="181" y="1352.6357">move ( paramVector2D1 : com.ensea_java_final.Vector2D ) : void</text><ellipse cx="172" cy="1365.5859" fill="#84BE84" rx="3" ry="3" style="stroke:#038048;stroke-width:1;"/><text fill="#000000" font-family="sans-serif" font-size="14" lengthAdjust="spacing" textLength="330.8047" x="181" y="1368.9326">setColliding ( paramBoolean1 : Boolean ) : void</text><ellipse cx="172" cy="1381.8828" fill="#84BE84" rx="3" ry="3" style="stroke:#038048;stroke-width:1;"/><text fill="#000000" font-family="sans-serif" font-size="14" lengthAdjust="spacing" textLength="544.7695" x="181" y="1385.2295">setColor ( paramfloat1 : float , paramfloat2 : float , paramfloat3 : float ) : void</text><ellipse cx="172" cy="1398.1797" fill="#84BE84" rx="3" ry="3" style="stroke:#038048;stroke-width:1;"/><text fill="#000000" font-family="sans-serif" font-size="14" lengthAdjust="spacing" textLength="294.6221" x="181" y="1401.5264">setTexture ( paramString1 : String ) : void</text></g><!--class Body$Builder--><g id="elem_Body$Builder"><rect codeLine="29" fill="#F1F1F1" height="373.9375" id="Body$Builder" rx="2.5" ry="2.5" style="stroke:#181818;stroke-width:0.5;" width="765.6963" x="991" y="84"/><ellipse cx="1322.7173" cy="100" fill="#ADD1B2" rx="11" ry="11" style="stroke:#181818;stroke-width:1;"/><path d="M1325.686,105.6406 Q1325.1079,105.9375 1324.4673,106.0781 Q1323.8267,106.2344 1323.1235,106.2344 Q1320.6235,106.2344 1319.2954,104.5938 Q1317.9829,102.9375 1317.9829,99.8125 Q1317.9829,96.6875 1319.2954,95.0313 Q1320.6235,93.375 1323.1235,93.375 Q1323.8267,93.375 1324.4673,93.5313 Q1325.1235,93.6875 1325.686,93.9844 L1325.686,96.7031 Q1325.061,96.125 1324.4673,95.8594 Q1323.8735,95.5781 1323.2485,95.5781 Q1321.9048,95.5781 1321.2173,96.6563 Q1320.5298,97.7188 1320.5298,99.8125 Q1320.5298,101.9063 1321.2173,102.9844 Q1321.9048,104.0469 1323.2485,104.0469 Q1323.8735,104.0469 1324.4673,103.7813 Q1325.061,103.5 1325.686,102.9219 L1325.686,105.6406 Z " fill="#000000"/><text fill="#000000" font-family="sans-serif" font-size="14" lengthAdjust="spacing" textLength="93.7617" x="1343.2173" y="104.8467">Body$Builder</text><line style="stroke:#181818;stroke-width:0.5;" x1="992" x2="1755.6963" y1="116" y2="116"/><rect fill="transparent" height="6" style="stroke:#C82930;stroke-width:1;" width="6" x="999" y="126.6484"/><text fill="#000000" font-family="sans-serif" font-size="14" lengthAdjust="spacing" textLength="53.9561" x="1011" y="132.9951">b : float</text><rect fill="transparent" height="6" style="stroke:#C82930;stroke-width:1;" width="6" x="999" y="142.9453"/><text fill="#000000" font-family="sans-serif" font-size="14" lengthAdjust="spacing" textLength="104.9111" x="1011" y="149.292">fixed : Boolean</text><rect fill="transparent" height="6" style="stroke:#C82930;stroke-width:1;" width="6" x="999" y="159.2422"/><text fill="#000000" font-family="sans-serif" font-size="14" lengthAdjust="spacing" textLength="53.9561" x="1011" y="165.5889">g : float</text><rect fill="transparent" height="6" style="stroke:#C82930;stroke-width:1;" width="6" x="999" y="175.5391"/><text fill="#000000" font-family="sans-serif" font-size="14" lengthAdjust="spacing" textLength="142.0371" x="1011" y="181.8857">isColliding : Boolean</text><rect fill="transparent" height="6" style="stroke:#C82930;stroke-width:1;" width="6" x="999" y="191.8359"/><text fill="#000000" font-family="sans-serif" font-size="14" lengthAdjust="spacing" textLength="100.0303" x="1011" y="198.1826">mass : Double</text><rect fill="transparent" height="6" style="stroke:#C82930;stroke-width:1;" width="6" x="999" y="208.1328"/><text fill="#000000" font-family="sans-serif" font-size="14" lengthAdjust="spacing" textLength="50.8252" x="1011" y="214.4795">r : float</text><rect fill="transparent" height="6" style="stroke:#C82930;stroke-width:1;" width="6" x="999" y="224.4297"/><text fill="#000000" font-family="sans-serif" font-size="14" lengthAdjust="spacing" textLength="90.3711" x="1011" y="230.7764">size : Double</text><rect fill="transparent" height="6" style="stroke:#C82930;stroke-width:1;" width="6" x="999" y="240.7266"/><text fill="#000000" font-family="sans-serif" font-size="14" lengthAdjust="spacing" textLength="137.9014" x="1011" y="247.0732">texturePath : String</text><rect fill="transparent" height="6" style="stroke:#C82930;stroke-width:1;" width="6" x="999" y="257.0234"/><text fill="#000000" font-family="sans-serif" font-size="14" lengthAdjust="spacing" textLength="79.7959" x="1011" y="263.3701">vx : Double</text><rect fill="transparent" height="6" style="stroke:#C82930;stroke-width:1;" width="6" x="999" y="273.3203"/><text fill="#000000" font-family="sans-serif" font-size="14" lengthAdjust="spacing" textLength="79.7959" x="1011" y="279.667">vy : Double</text><rect fill="transparent" height="6" style="stroke:#C82930;stroke-width:1;" width="6" x="999" y="289.6172"/><text fill="#000000" font-family="sans-serif" font-size="14" lengthAdjust="spacing" textLength="71.5107" x="1011" y="295.9639">x : Double</text><rect fill="transparent" height="6" style="stroke:#C82930;stroke-width:1;" width="6" x="999" y="305.9141"/><text fill="#000000" font-family="sans-serif" font-size="14" lengthAdjust="spacing" textLength="71.5107" x="1011" y="312.2607">y : Double</text><line style="stroke:#181818;stroke-width:0.5;" x1="992" x2="1755.6963" y1="319.5625" y2="319.5625"/><ellipse cx="1002" cy="333.2109" fill="#84BE84" rx="3" ry="3" style="stroke:#038048;stroke-width:1;"/><text fill="#000000" font-family="sans-serif" font-size="14" lengthAdjust="spacing" textLength="253.0254" x="1011" y="336.5576">build () : com.ensea_java_final.Body</text><ellipse cx="1002" cy="349.5078" fill="#84BE84" rx="3" ry="3" style="stroke:#038048;stroke-width:1;"/><text fill="#000000" font-family="sans-serif" font-size="14" lengthAdjust="spacing" textLength="739.6963" x="1011" y="352.8545">color ( paramfloat1 : float , paramfloat2 : float , paramfloat3 : float ) : com.ensea_java_final.Body$Builder</text><ellipse cx="1002" cy="365.8047" fill="#84BE84" rx="3" ry="3" style="stroke:#038048;stroke-width:1;"/><text fill="#000000" font-family="sans-serif" font-size="14" lengthAdjust="spacing" textLength="501.8672" x="1011" y="369.1514">fixed ( paramBoolean1 : Boolean ) : com.ensea_java_final.Body$Builder</text><ellipse cx="1002" cy="382.1016" fill="#84BE84" rx="3" ry="3" style="stroke:#038048;stroke-width:1;"/><text fill="#000000" font-family="sans-serif" font-size="14" lengthAdjust="spacing" textLength="489.9043" x="1011" y="385.4482">mass ( paramDouble1 : Double ) : com.ensea_java_final.Body$Builder</text><ellipse cx="1002" cy="398.3984" fill="#84BE84" rx="3" ry="3" style="stroke:#038048;stroke-width:1;"/><text fill="#000000" font-family="sans-serif" font-size="14" lengthAdjust="spacing" textLength="689.083" x="1011" y="401.7451">position ( paramDouble1 : Double , paramDouble2 : Double ) : com.ensea_java_final.Body$Builder</text><ellipse cx="1002" cy="414.6953" fill="#84BE84" rx="3" ry="3" style="stroke:#038048;stroke-width:1;"/><text fill="#000000" font-family="sans-serif" font-size="14" lengthAdjust="spacing" textLength="480.2451" x="1011" y="418.042">size ( paramDouble1 : Double ) : com.ensea_java_final.Body$Builder</text><ellipse cx="1002" cy="430.9922" fill="#84BE84" rx="3" ry="3" style="stroke:#038048;stroke-width:1;"/><text fill="#000000" font-family="sans-serif" font-size="14" lengthAdjust="spacing" textLength="488.5645" x="1011" y="434.3389">texture ( paramString1 : String ) : com.ensea_java_final.Body$Builder</text><ellipse cx="1002" cy="447.2891" fill="#84BE84" rx="3" ry="3" style="stroke:#038048;stroke-width:1;"/><text fill="#000000" font-family="sans-serif" font-size="14" lengthAdjust="spacing" textLength="688.3447" x="1011" y="450.6357">velocity ( paramDouble1 : Double , paramDouble2 : Double ) : com.ensea_java_final.Body$Builder</text></g><!--class Main--><g id="elem_Main"><rect codeLine="53" fill="#F1F1F1" height="129.4844" id="Main" rx="2.5" ry="2.5" style="stroke:#181818;stroke-width:0.5;" width="371.1807" x="584.5" y="206.5"/><ellipse cx="749.1299" cy="222.5" fill="#ADD1B2" rx="11" ry="11" style="stroke:#181818;stroke-width:1;"/><path d="M752.0986,228.1406 Q751.5205,228.4375 750.8799,228.5781 Q750.2393,228.7344 749.5361,228.7344 Q747.0361,228.7344 745.708,227.0938 Q744.3955,225.4375 744.3955,222.3125 Q744.3955,219.1875 745.708,217.5313 Q747.0361,215.875 749.5361,215.875 Q750.2393,215.875 750.8799,216.0313 Q751.5361,216.1875 752.0986,216.4844 L752.0986,219.2031 Q751.4736,218.625 750.8799,218.3594 Q750.2861,218.0781 749.6611,218.0781 Q748.3174,218.0781 747.6299,219.1563 Q746.9424,220.2188 746.9424,222.3125 Q746.9424,224.4063 747.6299,225.4844 Q748.3174,226.5469 749.6611,226.5469 Q750.2861,226.5469 750.8799,226.2813 Q751.4736,226 752.0986,225.4219 L752.0986,228.1406 Z " fill="#000000"/><text fill="#000000" font-family="sans-serif" font-size="14" lengthAdjust="spacing" textLength="33.4209" x="769.6299" y="227.3467">Main</text><line style="stroke:#181818;stroke-width:0.5;" x1="585.5" x2="954.6807" y1="238.5" y2="238.5"/><rect fill="transparent" height="6" style="stroke:#C82930;stroke-width:1;" width="6" x="592.5" y="249.1484"/><text fill="#000000" font-family="sans-serif" font-size="14" lengthAdjust="spacing" textLength="96.9473" x="604.5" y="255.4951">window : long</text><line style="stroke:#181818;stroke-width:0.5;" x1="585.5" x2="954.6807" y1="262.7969" y2="262.7969"/><rect fill="#F24D5C" height="6" style="stroke:#C82930;stroke-width:1;" width="6" x="592.5" y="273.4453"/><text fill="#000000" font-family="sans-serif" font-size="14" lengthAdjust="spacing" textLength="142.584" x="604.5" y="279.792">handleInput () : void</text><rect fill="#F24D5C" height="6" style="stroke:#C82930;stroke-width:1;" width="6" x="592.5" y="289.7422"/><text fill="#000000" font-family="sans-serif" font-size="14" lengthAdjust="spacing" textLength="88.5254" x="604.5" y="296.0889">loop () : void</text><ellipse cx="595.5" cy="309.0391" fill="#84BE84" rx="3" ry="3" style="stroke:#038048;stroke-width:1;"/><text fill="#000000" font-family="sans-serif" font-size="14" lengthAdjust="spacing" text-decoration="underline" textLength="345.1807" x="604.5" y="312.3857">main ( paramString;1 : [Ljava.lang.String; ) : void</text><ellipse cx="595.5" cy="325.3359" fill="#84BE84" rx="3" ry="3" style="stroke:#038048;stroke-width:1;"/><text fill="#000000" font-family="sans-serif" font-size="14" lengthAdjust="spacing" textLength="82.1201" x="604.5" y="328.6826">run () : void</text></g><!--class PhysicsEngine--><g id="elem_PhysicsEngine"><rect codeLine="62" fill="#F1F1F1" height="373.9375" id="PhysicsEngine" rx="2.5" ry="2.5" style="stroke:#181818;stroke-width:0.5;" width="1168.6953" x="529.5" y="535"/><ellipse cx="1059.7192" cy="551" fill="#ADD1B2" rx="11" ry="11" style="stroke:#181818;stroke-width:1;"/><path d="M1062.688,556.6406 Q1062.1099,556.9375 1061.4692,557.0781 Q1060.8286,557.2344 1060.1255,557.2344 Q1057.6255,557.2344 1056.2974,555.5938 Q1054.9849,553.9375 1054.9849,550.8125 Q1054.9849,547.6875 1056.2974,546.0313 Q1057.6255,544.375 1060.1255,544.375 Q1060.8286,544.375 1061.4692,544.5313 Q1062.1255,544.6875 1062.688,544.9844 L1062.688,547.7031 Q1062.063,547.125 1061.4692,546.8594 Q1060.8755,546.5781 1060.2505,546.5781 Q1058.9067,546.5781 1058.2192,547.6563 Q1057.5317,548.7188 1057.5317,550.8125 Q1057.5317,552.9063 1058.2192,553.9844 Q1058.9067,555.0469 1060.2505,555.0469 Q1060.8755,555.0469 1061.4692,554.7813 Q1062.063,554.5 1062.688,553.9219 L1062.688,556.6406 Z " fill="#000000"/><text fill="#000000" font-family="sans-serif" font-size="14" lengthAdjust="spacing" textLength="99.7568" x="1080.2192" y="555.8467">PhysicsEngine</text><line style="stroke:#181818;stroke-width:0.5;" x1="530.5" x2="1697.1953" y1="567" y2="567"/><rect fill="transparent" height="6" style="stroke:#C82930;stroke-width:1;" width="6" x="537.5" y="577.6484"/><text fill="#000000" font-family="sans-serif" font-size="14" lengthAdjust="spacing" textLength="169.6406" x="549.5" y="583.9951">adjustedDeltaT : Double</text><rect fill="transparent" height="6" style="stroke:#C82930;stroke-width:1;" width="6" x="537.5" y="593.9453"/><text fill="#000000" font-family="sans-serif" font-size="14" lengthAdjust="spacing" textLength="330.3945" x="549.5" y="600.292">executor : java.util.concurrent.ExecutorService</text><rect fill="transparent" height="6" style="stroke:#C82930;stroke-width:1;" width="6" x="537.5" y="610.2422"/><text fill="#000000" font-family="sans-serif" font-size="14" lengthAdjust="spacing" textLength="222.8242" x="549.5" y="616.5889">gravityDict : java.util.Dictionary</text><rect fill="transparent" height="6" style="stroke:#C82930;stroke-width:1;" width="6" x="537.5" y="626.5391"/><text fill="#000000" font-family="sans-serif" font-size="14" lengthAdjust="spacing" textLength="138.9063" x="549.5" y="632.8857">gravityType : String</text><rect fill="transparent" height="6" style="stroke:#C82930;stroke-width:1;" width="6" x="537.5" y="642.8359"/><text fill="#000000" font-family="sans-serif" font-size="14" lengthAdjust="spacing" textLength="182.1094" x="549.5" y="649.1826">simulationDeltaT : Double</text><ellipse cx="540.5" cy="662.1328" fill="transparent" rx="3" ry="3" style="stroke:#038048;stroke-width:1;"/><text fill="#000000" font-family="sans-serif" font-size="14" lengthAdjust="spacing" textLength="132.5215" x="549.5" y="665.4795">timeScale : Double</text><line style="stroke:#181818;stroke-width:0.5;" x1="530.5" x2="1697.1953" y1="672.7813" y2="672.7813"/><ellipse cx="540.5" cy="686.4297" fill="#84BE84" rx="3" ry="3" style="stroke:#038048;stroke-width:1;"/><text fill="#000000" font-family="sans-serif" font-size="14" lengthAdjust="spacing" textLength="513.8301" x="549.5" y="689.7764">applyGravity ( paramboolean1 : boolean , paramdouble2 : double ) : void</text><ellipse cx="540.5" cy="702.7266" fill="#84BE84" rx="3" ry="3" style="stroke:#038048;stroke-width:1;"/><text fill="#000000" font-family="sans-serif" font-size="14" lengthAdjust="spacing" textLength="932.9824" x="549.5" y="706.0732">bodyGravity ( paramBody1 : com.ensea_java_final.Body , paramBody2 : com.ensea_java_final.Body , paramDouble3 : Double ) : void</text><rect fill="#F24D5C" height="6" style="stroke:#C82930;stroke-width:1;" width="6" x="537.5" y="716.0234"/><text fill="#000000" font-family="sans-serif" font-size="14" lengthAdjust="spacing" textLength="885.9854" x="549.5" y="722.3701">clampVelocity ( paramVector2D1 : com.ensea_java_final.Vector2D , paramdouble2 : double ) : com.ensea_java_final.Vector2D</text><ellipse cx="540.5" cy="735.3203" fill="#84BE84" rx="3" ry="3" style="stroke:#038048;stroke-width:1;"/><text fill="#000000" font-family="sans-serif" font-size="14" lengthAdjust="spacing" textLength="666.2236" x="549.5" y="738.667">directionalGravity ( paramBody1 : com.ensea_java_final.Body , paramDouble2 : Double ) : void</text><rect fill="#F24D5C" height="6" style="stroke:#C82930;stroke-width:1;" width="6" x="537.5" y="748.6172"/><text fill="#000000" font-family="sans-serif" font-size="14" lengthAdjust="spacing" textLength="687.2715" x="549.5" y="754.9639">inBounds ( paramint1 : int , paramint2 : int , paramBody3 : com.ensea_java_final.Body ) : boolean</text><ellipse cx="540.5" cy="767.9141" fill="#84BE84" rx="3" ry="3" style="stroke:#038048;stroke-width:1;"/><text fill="#000000" font-family="sans-serif" font-size="14" lengthAdjust="spacing" textLength="144.5732" x="549.5" y="771.2607">moveBodies () : void</text><rect fill="#F24D5C" height="6" style="stroke:#C82930;stroke-width:1;" width="6" x="537.5" y="781.2109"/><text fill="#000000" font-family="sans-serif" font-size="14" lengthAdjust="spacing" textLength="1065.8184" x="549.5" y="787.5576">perPixelCircleCollisionContact ( paramBody1 : com.ensea_java_final.Body , paramBody2 : com.ensea_java_final.Body ) : com.ensea_java_final.Vector2D</text><rect fill="#F24D5C" height="6" style="stroke:#C82930;stroke-width:1;" width="6" x="537.5" y="797.5078"/><text fill="#000000" font-family="sans-serif" font-size="14" lengthAdjust="spacing" textLength="1026.1973" x="549.5" y="803.8545">perPixelCollisionContact ( paramBody1 : com.ensea_java_final.Body , paramBody2 : com.ensea_java_final.Body ) : com.ensea_java_final.Vector2D</text><rect fill="#F24D5C" height="6" style="stroke:#C82930;stroke-width:1;" width="6" x="537.5" y="813.8047"/><text fill="#000000" font-family="sans-serif" font-size="14" lengthAdjust="spacing" textLength="1142.6953" x="549.5" y="820.1514">resolveCollision ( paramBody1 : com.ensea_java_final.Body , paramBody2 : com.ensea_java_final.Body , paramVector2D3 : com.ensea_java_final.Vector2D ) : void</text><ellipse cx="540.5" cy="833.1016" fill="#84BE84" rx="3" ry="3" style="stroke:#038048;stroke-width:1;"/><text fill="#000000" font-family="sans-serif" font-size="14" lengthAdjust="spacing" textLength="175.5605" x="549.5" y="836.4482">resolveCollisions () : void</text><ellipse cx="540.5" cy="849.3984" fill="#84BE84" rx="3" ry="3" style="stroke:#038048;stroke-width:1;"/><text fill="#000000" font-family="sans-serif" font-size="14" lengthAdjust="spacing" textLength="189.0479" x="549.5" y="852.7451">shutdownExecutor () : void</text><ellipse cx="540.5" cy="865.6953" fill="#84BE84" rx="3" ry="3" style="stroke:#038048;stroke-width:1;"/><text fill="#000000" font-family="sans-serif" font-size="14" lengthAdjust="spacing" textLength="107.9463" x="549.5" y="869.042">update () : void</text><rect fill="#F24D5C" height="6" style="stroke:#C82930;stroke-width:1;" width="6" x="537.5" y="878.9922"/><text fill="#000000" font-family="sans-serif" font-size="14" lengthAdjust="spacing" textLength="150.2266" x="549.5" y="885.3389">waitForTasks () : void</text><rect fill="#F24D5C" height="6" style="stroke:#C82930;stroke-width:1;" width="6" x="537.5" y="895.2891"/><text fill="#000000" font-family="sans-serif" font-size="14" lengthAdjust="spacing" textLength="800.6865" x="549.5" y="901.6357">worldToTexture ( paramdouble1 : double , paramdouble2 : double , paramdouble3 : double , paramint4 : int ) : int</text></g><!--class Vector2D--><g id="elem_Vector2D"><rect codeLine="86" fill="#F1F1F1" height="227.2656" id="Vector2D" rx="2.5" ry="2.5" style="stroke:#181818;stroke-width:0.5;" width="694.6094" x="256.5" y="1486"/><ellipse cx="566.8618" cy="1502" fill="#ADD1B2" rx="11" ry="11" style="stroke:#181818;stroke-width:1;"/><path d="M569.8306,1507.6406 Q569.2524,1507.9375 568.6118,1508.0781 Q567.9712,1508.2344 567.2681,1508.2344 Q564.7681,1508.2344 563.4399,1506.5938 Q562.1274,1504.9375 562.1274,1501.8125 Q562.1274,1498.6875 563.4399,1497.0313 Q564.7681,1495.375 567.2681,1495.375 Q567.9712,1495.375 568.6118,1495.5313 Q569.2681,1495.6875 569.8306,1495.9844 L569.8306,1498.7031 Q569.2056,1498.125 568.6118,1497.8594 Q568.0181,1497.5781 567.3931,1497.5781 Q566.0493,1497.5781 565.3618,1498.6563 Q564.6743,1499.7188 564.6743,1501.8125 Q564.6743,1503.9063 565.3618,1504.9844 Q566.0493,1506.0469 567.3931,1506.0469 Q568.0181,1506.0469 568.6118,1505.7813 Q569.2056,1505.5 569.8306,1504.9219 L569.8306,1507.6406 Z " fill="#000000"/><text fill="#000000" font-family="sans-serif" font-size="14" lengthAdjust="spacing" textLength="65.3857" x="587.3618" y="1506.8467">Vector2D</text><line style="stroke:#181818;stroke-width:0.5;" x1="257.5" x2="950.1094" y1="1518" y2="1518"/><ellipse cx="267.5" cy="1531.6484" fill="transparent" rx="3" ry="3" style="stroke:#038048;stroke-width:1;"/><text fill="#000000" font-family="sans-serif" font-size="14" lengthAdjust="spacing" textLength="71.5107" x="276.5" y="1534.9951">x : Double</text><ellipse cx="267.5" cy="1547.9453" fill="transparent" rx="3" ry="3" style="stroke:#038048;stroke-width:1;"/><text fill="#000000" font-family="sans-serif" font-size="14" lengthAdjust="spacing" textLength="71.5107" x="276.5" y="1551.292">y : Double</text><line style="stroke:#181818;stroke-width:0.5;" x1="257.5" x2="950.1094" y1="1558.5938" y2="1558.5938"/><ellipse cx="267.5" cy="1572.2422" fill="#84BE84" rx="3" ry="3" style="stroke:#038048;stroke-width:1;"/><text fill="#000000" font-family="sans-serif" font-size="14" lengthAdjust="spacing" textLength="636.8975" x="276.5" y="1575.5889">add ( paramVector2D1 : com.ensea_java_final.Vector2D ) : com.ensea_java_final.Vector2D</text><ellipse cx="267.5" cy="1588.5391" fill="#84BE84" rx="3" ry="3" style="stroke:#038048;stroke-width:1;"/><text fill="#000000" font-family="sans-serif" font-size="14" lengthAdjust="spacing" textLength="499.8232" x="276.5" y="1591.8857">distance ( paramVector2D1 : com.ensea_java_final.Vector2D ) : Double</text><ellipse cx="267.5" cy="1604.8359" fill="#84BE84" rx="3" ry="3" style="stroke:#038048;stroke-width:1;"/><text fill="#000000" font-family="sans-serif" font-size="14" lengthAdjust="spacing" textLength="463.4424" x="276.5" y="1608.1826">dot ( paramVector2D1 : com.ensea_java_final.Vector2D ) : Double</text><ellipse cx="267.5" cy="1621.1328" fill="#84BE84" rx="3" ry="3" style="stroke:#038048;stroke-width:1;"/><text fill="#000000" font-family="sans-serif" font-size="14" lengthAdjust="spacing" textLength="154.3281" x="276.5" y="1624.4795">magnitude () : Double</text><ellipse cx="267.5" cy="1637.4297" fill="#84BE84" rx="3" ry="3" style="stroke:#038048;stroke-width:1;"/><text fill="#000000" font-family="sans-serif" font-size="14" lengthAdjust="spacing" textLength="317.7959" x="276.5" y="1640.7764">normalize () : com.ensea_java_final.Vector2D</text><ellipse cx="267.5" cy="1653.7266" fill="#84BE84" rx="3" ry="3" style="stroke:#038048;stroke-width:1;"/><text fill="#000000" font-family="sans-serif" font-size="14" lengthAdjust="spacing" textLength="460.7969" x="276.5" y="1657.0732">scale ( paramDouble1 : Double ) : com.ensea_java_final.Vector2D</text><ellipse cx="267.5" cy="1670.0234" fill="#84BE84" rx="3" ry="3" style="stroke:#038048;stroke-width:1;"/><text fill="#000000" font-family="sans-serif" font-size="14" lengthAdjust="spacing" textLength="646.6182" x="276.5" y="1673.3701">scale ( paramVector2D1 : com.ensea_java_final.Vector2D ) : com.ensea_java_final.Vector2D</text><ellipse cx="267.5" cy="1686.3203" fill="#84BE84" rx="3" ry="3" style="stroke:#038048;stroke-width:1;"/><text fill="#000000" font-family="sans-serif" font-size="14" lengthAdjust="spacing" textLength="668.6094" x="276.5" y="1689.667">subtract ( paramVector2D1 : com.ensea_java_final.Vector2D ) : com.ensea_java_final.Vector2D</text><ellipse cx="267.5" cy="1702.6172" fill="#84BE84" rx="3" ry="3" style="stroke:#038048;stroke-width:1;"/><text fill="#000000" font-family="sans-serif" font-size="14" lengthAdjust="spacing" textLength="126.6084" x="276.5" y="1705.9639">toString () : String</text></g><!--class WindowManager--><g id="elem_WindowManager"><rect codeLine="101" fill="#F1F1F1" height="178.375" id="WindowManager" rx="2.5" ry="2.5" style="stroke:#181818;stroke-width:0.5;" width="502.8203" x="46.5" y="182"/><ellipse cx="235.2231" cy="198" fill="#ADD1B2" rx="11" ry="11" style="stroke:#181818;stroke-width:1;"/><path d="M238.1919,203.6406 Q237.6138,203.9375 236.9731,204.0781 Q236.3325,204.2344 235.6294,204.2344 Q233.1294,204.2344 231.8013,202.5938 Q230.4888,200.9375 230.4888,197.8125 Q230.4888,194.6875 231.8013,193.0313 Q233.1294,191.375 235.6294,191.375 Q236.3325,191.375 236.9731,191.5313 Q237.6294,191.6875 238.1919,191.9844 L238.1919,194.7031 Q237.5669,194.125 236.9731,193.8594 Q236.3794,193.5781 235.7544,193.5781 Q234.4106,193.5781 233.7231,194.6563 Q233.0356,195.7188 233.0356,197.8125 Q233.0356,199.9063 233.7231,200.9844 Q234.4106,202.0469 235.7544,202.0469 Q236.3794,202.0469 236.9731,201.7813 Q237.5669,201.5 238.1919,200.9219 L238.1919,203.6406 Z " fill="#000000"/><text fill="#000000" font-family="sans-serif" font-size="14" lengthAdjust="spacing" textLength="116.874" x="255.7231" y="202.8467">WindowManager</text><line style="stroke:#181818;stroke-width:0.5;" x1="47.5" x2="548.3203" y1="214" y2="214"/><ellipse cx="57.5" cy="227.6484" fill="transparent" rx="3" ry="3" style="stroke:#038048;stroke-width:1;"/><text fill="#000000" font-family="sans-serif" font-size="14" lengthAdjust="spacing" text-decoration="underline" textLength="165.0195" x="66.5" y="230.9951">BOTTOM_BOUND : float</text><ellipse cx="57.5" cy="243.9453" fill="transparent" rx="3" ry="3" style="stroke:#038048;stroke-width:1;"/><text fill="#000000" font-family="sans-serif" font-size="14" lengthAdjust="spacing" text-decoration="underline" textLength="137.4434" x="66.5" y="247.292">LEFT_BOUND : float</text><ellipse cx="57.5" cy="260.2422" fill="transparent" rx="3" ry="3" style="stroke:#038048;stroke-width:1;"/><text fill="#000000" font-family="sans-serif" font-size="14" lengthAdjust="spacing" text-decoration="underline" textLength="147.9775" x="66.5" y="263.5889">RIGHT_BOUND : float</text><ellipse cx="57.5" cy="276.5391" fill="transparent" rx="3" ry="3" style="stroke:#038048;stroke-width:1;"/><text fill="#000000" font-family="sans-serif" font-size="14" lengthAdjust="spacing" text-decoration="underline" textLength="132.207" x="66.5" y="279.8857">TOP_BOUND : float</text><rect fill="transparent" height="6" style="stroke:#C82930;stroke-width:1;" width="6" x="54.5" y="289.8359"/><text fill="#000000" font-family="sans-serif" font-size="14" lengthAdjust="spacing" text-decoration="underline" textLength="96.9473" x="66.5" y="296.1826">window : long</text><line style="stroke:#181818;stroke-width:0.5;" x1="47.5" x2="548.3203" y1="303.4844" y2="303.4844"/><ellipse cx="57.5" cy="317.1328" fill="#84BE84" rx="3" ry="3" style="stroke:#038048;stroke-width:1;"/><text fill="#000000" font-family="sans-serif" font-size="14" lengthAdjust="spacing" text-decoration="underline" textLength="114.0303" x="66.5" y="320.4795">cleanup () : void</text><ellipse cx="57.5" cy="333.4297" fill="#84BE84" rx="3" ry="3" style="stroke:#038048;stroke-width:1;"/><text fill="#000000" font-family="sans-serif" font-size="14" lengthAdjust="spacing" text-decoration="underline" textLength="476.8203" x="66.5" y="336.7764">init ( paramint1 : int , paramint2 : int , paramString3 : String ) : void</text><ellipse cx="57.5" cy="349.7266" fill="#84BE84" rx="3" ry="3" style="stroke:#038048;stroke-width:1;"/><text fill="#000000" font-family="sans-serif" font-size="14" lengthAdjust="spacing" text-decoration="underline" textLength="107.9463" x="66.5" y="353.0732">update () : void</text></g><!--link Body to Vector2D--><g id="link_Body_Vector2D"><path codeLine="115" d="M471.54,1409.33 C471.01,1424.98 473.22,1440.65 479,1456 C482.83,1466.16 484.6793,1470.9094 490.3493,1480.4694 " fill="transparent" id="Body-to-Vector2D" style="stroke:#181818;stroke-width:1;"/><polygon fill="#181818" points="493.41,1485.63,492.2593,1475.8486,490.8594,1481.3295,485.3785,1479.9296,493.41,1485.63" style="stroke:#181818;stroke-width:1;"/><text fill="#000000" font-family="sans-serif" font-size="13" lengthAdjust="spacing" textLength="80.082" x="480" y="1452.0669">acceleration</text></g><!--link Body to Vector2D--><g id="link_Body_Vector2D"><path codeLine="116" d="M600.78,1409.29 C600.78,1425.1 600.84,1440.8 601,1456 C601.1,1465.65 601.1385,1469.6709 601.3085,1479.7209 " fill="transparent" id="Body-to-Vector2D-1" style="stroke:#181818;stroke-width:1;"/><polygon fill="#181818" points="601.41,1485.72,605.2572,1476.6536,601.3254,1480.7207,597.2584,1476.7889,601.41,1485.72" style="stroke:#181818;stroke-width:1;"/><text fill="#000000" font-family="sans-serif" font-size="13" lengthAdjust="spacing" textLength="51.4922" x="602" y="1452.0669">position</text></g><!--link Body to Vector2D--><g id="link_Body_Vector2D"><path codeLine="117" d="M661.71,1409.12 C661.9,1424.96 660.8,1440.72 658,1456 C656.21,1465.76 655.4422,1469.952 652.6122,1479.832 " fill="transparent" id="Body-to-Vector2D-2" style="stroke:#181818;stroke-width:1;"/><polygon fill="#181818" points="650.96,1485.6,657.2836,1478.0494,652.3368,1480.7933,649.5929,1475.8465,650.96,1485.6" style="stroke:#181818;stroke-width:1;"/><text fill="#000000" font-family="sans-serif" font-size="13" lengthAdjust="spacing" textLength="50.8066" x="661" y="1452.0669">velocity</text></g><!--reverse link Main to Body--><g id="link_Main_Body"><path codeLine="118" d="M694.3442,344.0259 C655.3342,380.5859 613.56,418.67 567,458 C524.42,493.97 492.49,484.93 468,535 C398.85,676.4 439.62,851.41 494.05,985.9 " fill="transparent" id="Main-backto-Body" style="stroke:#181818;stroke-width:1;"/><polygon fill="transparent" points="703.1,335.82,695.9868,337.0043,694.3442,344.0259,701.4574,342.8415,703.1,335.82" style="stroke:#181818;stroke-width:1;"/><text fill="#000000" font-family="sans-serif" font-size="13" lengthAdjust="spacing" textLength="42.8403" x="469" y="726.5669">bodies</text><text fill="#000000" font-family="sans-serif" font-size="13" lengthAdjust="spacing" textLength="8.271" x="686.9074" y="356.2286">1</text><text fill="#000000" font-family="sans-serif" font-size="13" lengthAdjust="spacing" textLength="23.0356" x="466.6893" y="975.0985">0..*</text></g><!--link Main to PhysicsEngine--><g id="link_Main_PhysicsEngine"><path codeLine="119" d="M818.92,335.85 C858.71,387.79 913.301,459.0371 967.551,529.8471 " fill="transparent" id="Main-to-PhysicsEngine" style="stroke:#181818;stroke-width:1;"/><polygon fill="#181818" points="971.2,534.61,968.9018,525.033,968.1592,530.6409,962.5513,529.8984,971.2,534.61" style="stroke:#181818;stroke-width:1;"/><text fill="#000000" font-family="sans-serif" font-size="13" lengthAdjust="spacing" textLength="93.0439" x="943" y="501.0669">physicsEngine</text></g><!--reverse link PhysicsEngine to Body--><g id="link_PhysicsEngine_Body"><path codeLine="120" d="M904.7368,917.2858 C877.6868,942.4058 858.57,960.15 831.09,985.66 " fill="transparent" id="PhysicsEngine-backto-Body" style="stroke:#181818;stroke-width:1;"/><polygon fill="transparent" points="913.53,909.12,906.4115,910.2718,904.7368,917.2858,911.8553,916.134,913.53,909.12" style="stroke:#181818;stroke-width:1;"/><text fill="#000000" font-family="sans-serif" font-size="13" lengthAdjust="spacing" textLength="42.8403" x="875" y="952.0669">bodies</text><text fill="#000000" font-family="sans-serif" font-size="13" lengthAdjust="spacing" textLength="8.271" x="897.5541" y="928.7931">1</text><text fill="#000000" font-family="sans-serif" font-size="13" lengthAdjust="spacing" textLength="23.0356" x="815.8417" y="974.8498">0..*</text></g><!--SRC=[pLZTRzis47-U_meXw4CtLqPjRoyPC62EqpP0imIDrWBBGq2JZCsM8WMIakC5_TzBwlk3aYp71lectntlyyUxeo45KZgG-nFC90OFNq447Xu90tIou6ZdF8z-UNuacABlZWjei07NG7vppftx-_zAd9McF58EL44RFv8dZ3HzmJd5W9MarqrfbyWBJYb1XArjPyQ-SVFSMV9mHN7fdB1ObkH_R9DL-Ea39kkDqap2L9NpXI2riJ5KAF2L2UIAARp6eicz1V79EoMqzvhjOxNXnX4amDPv_QlcHPoW4iTvbWee0bEP2o8WnSvh9m02-74uqomkvqs9EhDIvtMgZk7t91IdtxYN185Ew4H1-QFThV46oBzpXCLPM-Kmo8NAE8bb5WqPLtk1IfeIuqbrfdcTkZCJwqWpqwaXWKlkdi-ZNFupXegBsTASi5wmJC2Q3ObLAT94Onhhj0YxuoWNHwXbY_fzCXCV-puQZM1tYtcr20b5M5HQZQMXk4TjAEw0Xk9sD1JR_S_OqPFjKBIpKQsY5Say_okJhmJyhKajoyCZOg6tYcN3IS6wiJj8OLopL5-IbscUeU7Q0Yw98forQdnJfizUO2d6pz7yLdjSla4A8qmv96fteaJqz81hG5Zbxcy9GtohLLDU6QVk1Z14yHKBGcMTghffyw1ltlh6N2LrVvf8xpyQboOKiFKa9LkRdmXPoK9FQBURdIHGNh8rORYwIg6leLGOBJ5LmBFTVVo4OQZ7W-R5deMAq0da38P2OAOcbod_3ek8mFB9jG2HhkQIG5KvR0WQxa3iciBUBi2s5YQ97r9WZhLwEbR4ntSGK6pjLY08wEvzOYNB-whe1Ubd1Z6KGmmL4AlNOANHLTDe03VjGcDcm7pFzX5C8fbNmLu7dAwz7tokNP_zvtvNq9qdAqic4JWfB3qqATQBNO-Li0KF6SeRiDvyfetzRbQb62FpJWzQrZopHsa-mT9-qmCiRlLqeSdI6azwgLDmmPa26lR7HyMGaXJU_MH-2ImvZOfqdUxsPDRd1-s-TJ_j81ZBJQZqf61PAxHBXG422jjXj0L4lUF2q- -45g1jkQ38uxM55-KJ4bKcPECcL-Zp1htsK3EFYPwHakUjD4t6jkLnR5yU0KA7lKy6z2CzQnayy1dKz1XnTInLFbWpeaAKeg4fmBZm0OstjK4notZy3TxmUbMTg4GoN2bHwaSdCgDukf76oKntYnvyVucNlsl0mBhw92mskCMDvzrSFonk_lrdsNoi5N8VBzzv_LAVhjv_s4FCkxdj5MhTN4jwe9bqOU-MIZHEXmpQ9BdpFV_TQFP4KnLTbzQsxhf_EJtGE7S0X9XY4Q-BBzMLFSvUgYTxsupQtnvdqpE7kwvpzdOo-UtCwHXkPbKnEqc7idQdgey17M7vzsYF8mVuEVe1]--></g></svg>